<?xml version="1.0" standalone="no"?>
<!DOCTYPE svg PUBLIC "-//W3C//DTD SVG 1.1//EN" "http://www.w3.org/Graphics/SVG/1.1/DTD/svg11.dtd" >
<!--
2013-9-30: Created.
-->
<svg>
<metadata>
Created by iconfont
</metadata>
<defs>

<font id="iconfont" horiz-adv-x="1024" >
  <font-face
    font-family="iconfont"
    font-weight="500"
    font-stretch="normal"
    units-per-em="1024"
    ascent="896"
    descent="-128"
  />
    <missing-glyph />
    
    <glyph glyph-name="haiyangshengwu" unicode="&#58919;" d="M249.509161 395.628387c-15.459097 0-27.994839-12.750452-27.994839-28.473806 0-15.723355 12.535742-28.473806 27.994839-28.473806 15.459097 0 27.978323 12.750452 27.978323 28.473806C277.504 382.877935 264.968258 395.628387 249.509161 395.628387zM512 812C229.227355 812 0 582.772645 0 300c0-282.772645 229.227355-512 512-512 282.772645 0 512 229.227355 512 512C1024 582.772645 794.772645 812 512 812zM746.925419 513.685677c29.084903-11.742968 72.439742-23.865806 83.604645-2.923355 11.164903 20.942452-3.451871-53.082839-53.941677-37.67329 0 0-99.443613 17.242839-136.951742-16.08671C639.636645 457.018839 717.840516 525.428645 746.925419 513.685677zM310.965677 131.353806c-23.172129 0.842323-124.151742 52.190968-124.977548 65.668129-0.825806 13.460645 52.141419 28.622452 67.864774 46.311226 15.723355 17.672258 11.594323 45.468903-22.346323 34.51871-33.940645-10.950194-86.907871-45.468903-105.934452-28.622452-19.043097 16.846452-12.998194 49.664-4.954839 59.722323 0 0 123.309419 157.497806 164.698839 147.406452C326.689032 446.233806 334.137806 130.494968 310.965677 131.353806zM791.188645 135.383742c0 0-99.939097 13.989161-136.373677-20.562581 0 0 76.007226 70.936774 105.455484 60.151742 29.448258-10.785032 73.149935-21.487484 83.654194-0.198194C854.412387 196.097032 842.157419 121.625806 791.188645 135.383742zM780.354065 294.07071c0 0-142.286452-214.494968-411.813161-190.530065 0.941419 0-4.096 342.693161-19.786323 382.497032 0 0 359.044129-16.301419 427.833806-139.957677 107.420903 80.516129 97.06529 68.062968 107.420903 80.516129 10.372129 12.453161 15.079226-236.775226 15.079226-236.775226L780.354065 294.07071z"  horiz-adv-x="1024" />

    
    <glyph glyph-name="leixing" unicode="&#58904;" d="M148.408224-212c-45.867267 0-96.99366 0.360214-108.808683 0.432257l-38.80707 0.408243-0.360214 38.759041c-0.264157 40.127855-0.792471 137.4337 0.024014 174.031456 1.969171 86.667521 25.599218 153.283122 70.265771 197.92566 45.459024 45.507052 105.999013 70.529928 170.429315 70.529928 64.454316 0 124.970291-25.022875 170.453329-70.529928 45.459024-45.43501 70.481899-105.950984 70.481899-170.381286 0-64.47833-25.022875-124.970291-70.481899-170.453329-44.618524-44.618524-111.210111-68.272586-197.901646-70.289785C199.006303-211.879929 174.55977-212 148.408224-212zM55.569034-156.45498c37.534313-0.216128 123.289291-0.624371 156.789206 0.120071 71.994799 1.680999 125.858819 19.907835 160.103176 54.128177 35.036828 35.036828 54.320292 81.672552 54.320292 131.382102 0 49.661522-19.283463 96.32126-54.296277 131.334074-35.036828 35.012814-81.672552 54.320292-131.382102 54.320292-49.661522 0-96.32126-19.307478-131.334074-54.320292-34.268371-34.268371-52.495207-88.156406-54.128177-160.12719C54.968677-31.436661 55.304877-110.971942 55.569034-156.45498zM241.127342 329.93016c-64.430302 0-124.970291 25.022875-170.429315 70.481899-44.642539 44.690567-68.2966 111.282154-70.265771 197.949675C-0.384228 634.935475 0.1681 732.265335 0.432257 772.417204l0.360214 38.831084 38.80707 0.312186c18.515007 0.144086 133.687473 0.912542 174.031456 0 86.691535-1.993185 153.283122-25.623232 197.949675-70.313799 45.459024-45.43501 70.481899-105.950984 70.481899-170.381286s-25.022875-124.970291-70.481899-170.429315C366.097633 354.977049 305.581658 329.93016 241.127342 329.93016zM55.569034 756.423696C55.304877 710.940658 54.968677 631.405377 55.665091 599.610476c1.632971-71.970784 19.859806-125.858819 54.128177-160.12719 34.9888-35.012814 81.648537-54.296277 131.334074-54.296277 49.685536 0 96.345274 19.283463 131.382102 54.296277 34.9888 35.012814 54.296277 81.672552 54.296277 131.358088S407.522259 667.186648 372.509445 702.175447c-34.268371 34.268371-88.132392 52.495207-160.12719 54.128177C178.858325 757.048067 93.103347 756.639824 55.569034 756.423696zM875.60852-212c-26.151546 0-50.574065 0.120071-65.222773 0.456271-86.71555 2.017199-153.33115 25.671261-197.92566 70.289785-45.483038 45.483038-70.505913 105.974999-70.505913 170.453329 0 64.430302 25.04689 124.946276 70.505913 170.381286 45.483038 45.507052 105.974999 70.529928 170.429315 70.529928s124.946276-25.022875 170.429315-70.529928c44.642539-44.642539 68.2966-111.234125 70.265771-197.92566 0.8405-36.597756 0.312186-133.903601 0.024014-174.031456l-0.3362-38.759041-38.831084-0.408243C972.578166-211.639786 921.451773-212 875.60852-212zM782.889402 214.805722c-49.685536 0-96.32126-19.307478-131.358088-54.320292s-54.320292-81.672552-54.320292-131.334074c0-49.685536 19.283463-96.345274 54.320292-131.382102 34.244357-34.220343 88.108378-52.447178 160.12719-54.128177 33.4759-0.720428 119.230879-0.3362 156.789206-0.120071 0.264157 45.483038 0.600357 125.018319-0.120071 156.81322-1.632971 71.970784-19.835792 125.858819-54.128177 160.12719C879.186648 195.522259 832.574938 214.805722 782.889402 214.805722zM782.889402 329.93016c-64.454316 0-124.946276 25.022875-170.429315 70.481899-45.459024 45.459024-70.505913 105.999013-70.505913 170.429315s25.04689 124.946276 70.505913 170.381286c44.618524 44.690567 111.210111 68.320614 197.92566 70.313799 40.295955 0.888528 155.444407 0.120071 174.031456 0l38.831084-0.312186 0.3362-38.831084c0.288171-40.151869 0.816485-137.457714-0.024014-174.05547-1.969171-86.643507-25.599218-153.259107-70.265771-197.949675C907.835678 354.977049 847.319704 329.93016 782.889402 329.93016zM875.60852 756.735882c-25.647246 0-49.589479-0.120071-63.950016-0.432257-71.994799-1.632971-125.882833-19.859806-160.12719-54.128177-35.036828-35.012814-54.320292-81.648537-54.320292-131.334074s19.283463-96.345274 54.320292-131.358088c35.036828-35.012814 81.648537-54.296277 131.358088-54.296277s96.32126 19.283463 131.334074 54.296277c34.292386 34.268371 52.495207 88.156406 54.128177 160.12719 0.720428 31.794901 0.384228 111.330182 0.120071 156.789206C946.978948 756.543767 909.828863 756.735882 875.60852 756.735882z"  horiz-adv-x="1025" />

    
    <glyph glyph-name="diliweizhi" unicode="&#58901;" d="M370.352933 413.285113c0 77.271898 62.627363 139.895167 139.898237 139.895167s139.898237-62.624293 139.898237-139.895167c0-77.268828-62.627363-139.898237-139.898237-139.898237S370.352933 336.016285 370.352933 413.285113zM510.25117 357.325613c30.861892 0 55.959499 25.111934 55.959499 55.959499 0 30.850635-25.097608 55.959499-55.959499 55.959499-30.861892 0-55.959499-25.108864-55.959499-55.959499C454.29167 382.437547 479.389278 357.325613 510.25117 357.325613zM792.423761 231.252243 569.039087-114.282445c-12.459776-19.263739-34.129308-32.025391-58.787918-32.025391-24.658609 0-46.329165 12.761652-58.787918 32.025391l270.465968 391.113769c26.25906 40.629349 40.139186 87.817068 40.139186 136.453788 0 138.860605-112.970958 251.814166-251.817236 251.814166-138.849348 0-251.817236-112.953561-251.817236-251.814166 0-48.63672 13.881149-95.824439 40.153512-136.482441l128.390135-198.61043-60.70457-60.7015L228.078579 231.252243c-33.897018 52.461839-53.583382 114.952078-53.583382 182.03287 0 185.393407 150.323681 335.755973 335.755973 335.755973S846.007143 598.67852 846.007143 413.285113C846.007143 346.204321 826.320779 283.714082 792.423761 231.252243z"  horiz-adv-x="1024" />

    
    <glyph glyph-name="xiayibu" unicode="&#58930;" d="M0 364.8 268.8 364.8 268.8 896 710.4 896 710.4 364.8 979.2 364.8 492.8-128Z"  horiz-adv-x="1024" />

    
    <glyph glyph-name="yonghuzu" unicode="&#58922;" d="M192.664509 630.989277c0-115.818819 86.583984-209.707163 193.383382-209.707163 106.803491 0 193.381335 93.888344 193.381335 209.707163 0 115.809609-86.576821 209.698976-193.381335 209.698976C279.243377 840.688253 192.664509 746.79991 192.664509 630.989277L192.664509 630.989277M501.311055 413.253254c-33.259498-25.764803-72.816422-40.706097-115.26214-40.706097-42.446741 0-82.002642 14.942317-115.26214 40.706097C125.986901 354.983129 21.577946 189.952492 21.577946-4.549364c0-11.406794 0.356111-22.716374 1.060145-33.905204l726.817554 0c0.705058 11.18883 1.061169 22.494317 1.061169 33.905204 0 194.501856-104.403838 359.533516-249.209852 417.802618L501.311055 413.253254M501.311055 413.253254 501.311055 413.253254zM692.525028 699.910996c-36.549427 0-70.293973-12.424984-97.591689-33.403784 5.431709-9.609869 8.988722-20.535709 10.645454-31.490202 1.991354-13.160741 2.579755-26.948769-0.028653-39.590694 0.038886-17.219173-2.142803-34.400484-6.683213-50.738591-9.795087-35.233456-29.02301-64.966641-55.105039-88.522126 26.288736-58.027601 82.993203-98.217952 148.763139-98.217952 90.813309 0 164.42791 76.55456 164.42791 170.985256C856.952938 623.358483 783.338337 699.910996 692.525028 699.910996L692.525028 699.910996zM790.527063 345.78156c-28.278043-21.905916-61.910025-34.607192-98.003058-34.607192-9.343809 0-18.509563 0.8913-27.471678 2.542916 33.095769-27.193339 54.757115-74.607208 70.994937-118.100792 8.29799-20.517289 15.425318-41.764196 22.022573-62.677505 14.97097-47.461965 25.021883-100.390431 19.514449-150.882406 0.524956-6.78452 0.874927-13.571087 1.01512-20.343327l222.918046 0c0.599657 9.513678 0.902556 19.127639 0.902556 28.825512C1002.422054 155.912212 913.652288 296.238191 790.527063 345.78156L790.527063 345.78156zM790.530133 345.78156 790.530133 345.78156z"  horiz-adv-x="1024" />

    
    <glyph glyph-name="xiangmu" unicode="&#58887;" d="M512-36.864l-439.808 201.728c1.536-1.024-38.912 17.408-67.584 33.792 0-24.576 6.144-69.12 29.184-81.408l430.592-192.512c37.888-17.92 54.272-17.92 95.744 0l430.592 192.512c20.992 9.728 29.184 56.32 29.184 81.408-27.648-13.824-67.072-33.28-67.584-33.792l-440.32-201.728zM33.792 520.704l430.592-192.512c37.888-17.92 54.272-17.92 95.744 0l430.592 192.512c31.744 14.848 32.768 77.312 0 95.232l-430.592 226.304c-33.792 19.968-57.856 18.944-95.744 0L33.792 615.936c-33.28-20.992-34.304-77.312 0-95.232zM512 803.84c0.512 0 1.024-0.512 1.024-0.512L951.808 568.32 512 384 72.192 568.32 512 803.84zM513.024 803.328l-1.024 0.512c2.56-3.072 2.56-1.536 1.024-0.512zM33.792 318.976l430.592-192.512c37.888-17.92 54.272-17.92 95.744 0l430.592 192.512c20.992 9.728 29.184 56.32 29.184 81.408-27.648-13.824-67.072-33.28-67.584-33.792l-440.32-201.728-439.808 201.728c1.536-1.024-38.912 17.408-67.584 33.792 0-24.576 6.144-69.12 29.184-81.408z"  horiz-adv-x="1024" />

    
    <glyph glyph-name="chinamap-chart" unicode="&#59522;" d="M840.576 93.696c-2.944 0.384-0.448 4.608-4.352 6.080v1.664l-0.832 0.896c-1.408 0.96-3.2 0.512-5.056 1.408 0 1.408-1.088 2.304-1.536 4.224-1.792 0-1.408 2.112-2.24 3.52l-3.648 3.712c0.448 3.072 2.688 6.848 2.24 10.368-0.448 1.408-0.448 3.264-1.792 4.224 0.936 7.694 3.707 14.6 7.86 20.458-1.972-1.194-2.42 1.814-0.82 4.118l2.752 1.472c0.896 0.96 0.896 3.584 1.28 5.824 0.96 2.368 4.864 2.816 5.696 6.4 1.856 0.448 3.648 0.896 5.056 2.816 1.536 0 3.84 1.408 5.632 1.408 1.344-1.408 1.792-3.328 4.8-3.776 3.072-11.712 0-26.048-0.512-39.168-3.392-5.824-1.152-14.080-6.080-19.712-1.408-3.072-0.512-6.784-0.96-10.304-0.448-2.368-0.896-4.224-3.392-5.248-1.344 0.512-2.304-0.896-4.096-0.384zM626.176 0c-0.832 0.96-3.072 1.472-5.312 2.368l-0.96 1.408c-1.6 0.448-3.84 0-5.632 1.408l-1.408 1.472c-0.448 1.6 0 3.456-1.344 5.312l-1.152 0.96c0 2.88-1.344 5.376-0.896 8.704 0.448 1.408 2.944 2.304 2.496 4.928 4.032 3.328 8.32 7.232 13.824 10.56 3.392 0 5.248 0.896 8.384 2.368 2.048 0 2.048-1.472 4.288-1.92l2.752 0.448 1.344 2.432-0.896 1.152c-1.344 0.448-3.584 0.896-5.44 1.856-1.088 1.408-2.944 2.368-3.84 4.224 0 3.072-2.304 4.928-2.688 8.64l-1.408 1.472c-0.448 1.664-0.448 3.968-0.896 5.76l-0.64 1.024c-2.304 0.448-4.096 0.448-6.848 0.96-1.088 1.152-2.944 1.6-3.84 3.52-2.85 0.894-6.127 1.409-9.525 1.409-0.094 0-0.188-0-0.282-0.001-3.122 0-2.226-2.816-5.106-3.776-2.816-0.704-5.12-0.704-8.448-0.704-3.584 1.216-5.888 2.56-9.792 4.48-1.728 0-4.736-0.448-7.040 0.96-1.792 2.816-4.928 4.928-7.424 8.192-0.896 0.512-0.896 2.368-1.792 4.48-0.448 3.264 1.28 7.040 0.448 11.008l-1.408 0.896c-1.28 0-3.84-0.448-5.632-0.448-11.622 4.185-21.572 10.479-29.851 18.49 13.979-13.562 10.395-14.714 9.435-17.594-1.28-1.792-4.736-2.752-6.144-5.76-2.304-1.92-6.528-0.96-9.728-0.96-1.408-0.512-1.856-1.92-4.352-2.368-6.528 2.368-13.824 0-20.864 2.816-1.536 0-3.328-0.512-4.288-1.472l-1.344-2.752c-1.856 0-4.8 0-7.040 0.448-1.792-0.448-4.096 0-5.696-1.92-0.896-6.72 2.944-14.912-1.344-21.312-2.24 0.512-2.688-1.792-5.44-2.304-1.6 0-2.496 0.512-4.288 0.896-2.304 1.408-1.408 4.224-4.8 4.928-0.448 2.368-1.28 4.224-2.24 7.040l-0.96 0.96c-2.752 0-1.792-3.264-4.736-4.224-1.792 0-4.544-0.512-6.848 0.96-2.313 3.021-5.341 5.383-8.836 6.853 4.1-2.437 4.1 0.379 2.756 1.275-0.896 0.512-2.24 1.024-2.688 3.328-1.209 0.981-2.762 1.582-4.454 1.602-0.858 1.022-2.138 1.47-3.482 2.814-0.704 1.408-2.048 1.92-2.56 4.48 0 2.816 0.512 5.12 0.512 8.64 2.432 1.024 0.448 3.328 2.048 5.632-1.152 1.472-3.008 1.92-5.248 3.136-0.96 2.304-3.2 3.2-4.352 6.528 0 3.072-0.448 5.44-0.448 8.64l-1.28 3.072c-4.16 2.368-10.24-0.512-15.488 0.96l-1.856 1.408c-0.729 3.697-1.146 7.948-1.146 12.297 0 2.273 0.114 4.52 0.336 6.734 0.361 2.281 3.561 1.897 4.457 4.649v2.752c2.048 2.368 3.84 6.784 7.936 8.192 1.6 1.92 3.456 4.48 6.144 5.888 1.344 0.896 1.344 3.264 1.344 5.888 1.803 2.172 3.026 4.885 3.396 7.863-0.836 0.777-0.004 3.145 0.444 6.409 1.408 4.928 0 6.784 0 9.6l-1.792 2.56-2.944 0.896c-10.179 21.166-17.3 45.76-20.018 71.664 12.082-55.664 11.122-56.112 9.394-55.664-0.96-1.408-3.84-4.48-4.8-6.784-2.752-2.368-7.488-0.896-11.136-1.408-5.248 1.92-8.32 6.336-12.672 9.152h-5.504l-3.392-2.368c-1.92 0-2.752-1.6-5.44-2.048h-1.6l-2.752-1.024c-1.792-1.344-4.032-3.2-7.040-4.672-2.24-3.52-7.488-3.008-11.968-4.864l-0.896-1.408c-1.6-0.512-2.048-1.92-4.352-2.368h-2.688c-1.408-0.512-1.856-2.176-4.352-2.56-2.254-0.531-4.842-0.835-7.501-0.835-3.3 0-6.49 0.469-9.508 1.343l-2.959 3.46c-0.896 2.368 0 4.224-0.448 7.296-3.546 4.196-8.237 7.322-13.59 8.903 4.415 0.216 2.251 2.199-0.4 3.174l-0.026 2.195-2.752 1.664-1.408 2.752c-2.432 1.472-6.528 1.92-9.92 2.816l-2.752 2.624h-8.32c-1.92-2.112-4.864-3.52-6.208-5.76 0-2.432-1.408-4.096-2.304-6.912-0.448-0.896-2.24-0.896-4.288-1.92-1.344 0-3.648 1.024-5.44 1.472-3.392 3.712 0.448 11.008-3.392 15.488-2.24-0.512-4.096-2.304-7.040-1.856-1.792 0.448-2.24 3.264-4.48 4.16h-7.040l-4.352 2.368c-4.096 0.96-9.28 3.584-13.824 4.48-1.856 0-2.56 1.472-4.288 2.368-2.752 0-6.592 0-9.792 1.408-0.896 1.664-1.792 3.072-2.688 5.888-2.56 0.512-4.352 1.92-7.040 2.816-0.96 1.216-1.344 1.6-2.24 3.52 0 1.408 0 2.304-0.64 4.224-1.856 0.896-4.096 1.344-6.4 2.56l-1.536 2.752-2.752 1.536c-1.28 1.28-0.896 4.8-1.28 7.232l-2.368 2.304-2.944 1.92c-1.792 1.152-4.928 1.152-7.040 3.008-8.475 16.178-21.218 29.128-36.746 37.623 14.154-10.679 13.13-10.679 11.146-11.127-1.856-1.408-2.688-3.712-5.44-4.48-0.896 1.216-3.392 1.216-5.248 2.56-5.823 11.269-13.804 20.66-23.466 27.938 14.186-13.602 13.674-10.082 11.882-8.162-9.132 9.47-16.148 21.045-20.245 33.922l8.917-23.362c-1.28 1.6-2.24 4.416-4.928 5.376-2.048 8.704 0 16.896-1.152 26.048 1.152 1.408 0 4.032 1.152 5.824 1.792 1.024 2.688 2.368 5.44 3.328h1.28c1.6-1.408 2.112-3.328 4.8-3.84l1.408 1.984c0 8.192-1.856 14.976-2.752 21.312 1.344 2.368 2.752 4.224 4.096 7.488-3.436 6.401-5.454 14.005-5.454 22.081 0 0.405 0.005 0.809 0.015 1.211-0.001 3.46-3.841-0.060-5.121 3.012h-2.816c-4.352 2.304-7.488 7.552-11.392 11.968-2.24 0.448-2.688 1.92-5.44 2.816l-1.088 0.96c-2.24 6.784 0 14.528-2.24 21.76-2.304 1.024-2.752 4.48-5.056 6.4-2.88 1.408-4.288 3.264-7.488 5.568-0.214 0.884-0.336 1.9-0.336 2.944 0 1.044 0.123 2.060 0.354 3.033 1.838 1.831 4.59 2.279 7.982 3.943l0.896 0.896v5.76c0.896 2.56 2.304 3.968 3.2 7.296 0 1.408-0.448 3.968-0.448 5.824-0.512 1.408-0.512 3.328-1.856 4.288-3.456 1.6-6.080 0-9.792 2.112-0.832 0.896-1.536 2.816-3.392 3.712l-0.832 3.008 0.896 2.752c1.408 1.472 2.944 2.368 4.352 4.736-0.52 1.565-0.82 3.368-0.82 5.24 0 2.333 0.466 4.558 1.31 6.586 1.814-0.114 2.262 1.294 4.054 2.254l0.448 1.408c2.56 1.408 5.248 2.56 8 5.824 3.84 1.472 7.040 0.512 11.328 0.96l2.688 1.472c3.84 0 7.040-1.92 11.136-1.472 1.984 0 3.84-1.856 4.736-3.712 2.304-0.896 4.288 0 7.040-0.448 2.752 1.408 3.648 3.2 7.040 4.16l1.344 2.88c0.448 1.152 2.304 1.152 4.096 2.112 2.944 0 7.040-0.512 9.536 2.368 8.384 2.752 16.32 0 25.216-0.96 3.584 1.408 7.936 3.712 12.416 3.264l2.56 1.408c1.792 4.032 5.376 8.64 4.48 14.528l2.752 2.432c1.6 0 1.6 2.112 3.392 3.456h1.344l0.896 0.832c0.448 10.112 0.448 21.12 0.896 32 2.496 0.896 0.448 3.2 2.048 5.568 2.304 0 2.304 3.072 4.928 3.584 6.592-0.96 15.040 2.752 20.672-3.072h11.136l1.28 2.112c0.512 3.2 0 6.080 1.408 10.048l2.56 1.92 0.832 2.752c1.011 1.921 2.618 3.414 4.572 4.254-0.476 1.186 0.42 4.002 2.020 6.562 2.304 0.512 1.344 3.328 3.2 5.12 2.24 0.512 2.688 2.624 5.248 3.584 3.584 0 5.888-3.52 10.624-4.48 1.792-0.448 2.688-3.2 5.632-3.712h1.344l4.992-1.408c0.083-0.001 0.181-0.002 0.279-0.002 2.955 0 5.745 0.71 8.207 1.97 1.498 0.337 1.050 4.113 2.842 5.265-0.448 3.712-0.896 9.152 1.792 12.928 0.512 0.96 3.84 0.448 3.84 2.752 1.408 0.512 3.648 0 5.44 0.512 2.304 0.64 3.904 1.152 5.312 3.008l0.448 1.472c1.28 1.344 1.28 2.816 3.136 4.224 6.592 1.6 14.528 4.928 21.12 2.048 2.24-4.928-0.512-12.16 1.792-18.24 1.792-1.216 3.392-2.56 4.8-4.992 1.728-0.448 3.136-1.792 4.032-4.416 1.344-0.96 2.944-1.92 5.76-2.816 1.28-0.512 2.24 0.96 3.968 0.512 2.112-1.024 2.56-3.84 5.248-4.224 0.448-1.024 0.448-3.072 1.856-4.032 0.448-3.712 0-8.64 1.344-12.8l1.6-1.024c3.136-4.48 0.832-10.816 3.584-16-1.28-3.904-1.792-8.64-5.632-12.16-0.197-1.352-0.309-2.914-0.309-4.501 0-2.487 0.276-4.909 0.799-7.238 3.15-1.941 7.085-3.232 11.321-3.236l2.206-1.92c5.76-1.408 12.288-1.92 16.832-5.824h2.944c4.096-0.96 6.4-5.184 11.136-7.040 0-1.664 0.896-3.968 1.28-5.888 2.816-0.448 2.816-4.48 5.76-5.824h1.344c1.28-0.512 3.2-0.512 4.032-1.92 1.6-2.304 1.152-6.784 1.6-10.112l2.752-3.968c-0.448-1.856 1.792-2.816 1.408-5.632 0.832-0.96 1.28-2.56 2.88-3.968v-2.816c0-1.408 1.856-1.408 2.304-4.032 1.344-0.448 2.688-1.92 4.992-2.752 2.496 0.448 2.496-1.92 5.184-2.368 6.592 0 12.736-1.408 19.52-3.072l2.496-1.92c11.072 0.512 20.864-1.792 32.192-1.792 1.856-0.512 2.304-2.368 4.992-2.816h5.632c1.92-1.664 3.904-2.56 5.76-4.032 0-1.408 0.896-2.304 1.28-4.224 3.648-1.6 7.040 0 11.136-2.56 0.896-2.816 4.288-4.224 6.144-7.232 5.632-0.96 10.624 0 16.768-0.512 1.792-0.448 2.24-2.304 5.248-2.752 7.001 2.125 12.916 6.076 17.386 11.3-2.474-4.068-1.514-3.556 0.278-3.108l1.792 2.368c2.304 0.448 4.352 0.896 7.040 1.6l2.304 2.368c7.040 2.304 14.528 2.816 21.12 4.672 3.584 0 8.32 0 12.416 0.96 7.936-0.512 12.224 0 17.92 1.152 1.408 0.96 1.792 2.88 2.752 5.12 5.061 6.035 11.501 10.748 18.845 13.678-10.461-6.83-9.565-6.83-7.709-6.318 1.536 1.344 1.536 3.968 2.944 5.76 1.55 0.462 2.751 1.643 3.232 3.147l-0.096 1.205-2.24 2.56c-1.408 2.752-4.352 5.568-5.76 9.984 0.512 3.84 0 7.36 0.512 11.52 1.408 0.512 2.944 0.512 3.392 3.072 1.408 0.896 2.752 1.92 5.44 2.816 8.384 1.408 16.384-4.032 25.216-1.408 2.048 0 2.496 1.408 4.288 2.304l0.896 1.472 2.752 1.408c2.944 2.56 5.248 4.48 8.32 8.192 2.56 0.96 4.416 0.96 7.104 2.112l1.792 1.92c2.496 0 4.8 1.28 7.040 2.752 0.448 3.584 2.496 5.888 2.496 10.112l0.448 0.896c0.965 1.41 2.46 2.396 4.191 2.674l3.745-0.114c3.648 1.92 5.44 6.144 9.792 9.216h7.040l3.2 2.304c4.288 0 8.768 1.408 14.080 0.96l1.792 1.92c0 2.048-1.408 2.56-2.368 4.48-1.792 0-1.792 1.792-3.328 3.2-2.304 0.512-3.648 3.072-5.504 5.44l-2.88 1.344-1.408 3.072c-1.792 0.96-4.992 0.448-7.040-1.152l-1.792-2.88c-2.688 0-3.648-2.304-6.144-3.712-1.408 0.512-3.136 0-4.992 1.408l-2.496 1.92h-5.44l-3.84-2.816c-2.091-1.043-4.554-1.657-7.159-1.665l-2.633 2.113-0.896 0.96c-0.448 1.408-1.792 1.792-2.24 4.16 0 4.928 1.344 10.816 2.24 16l1.408 1.344c0.448 4.48 2.24 7.296 3.392 11.712l1.408 0.96c0.448 4.736 3.584 7.808 5.376 11.968l1.216 0.96c5.376 0.64 10.624 0 16.704 0 1.408 0.64 3.2 0.64 4.16 2.112 2.24 3.328 5.632 6.080 8.832 9.6 1.792 3.776 0.896 7.296 1.792 11.52 2.048 3.008 2.944 7.68 5.184 11.712l1.408 0.96c1.344 0.96 1.344 3.328 1.344 5.632 0.512 0.512 2.56 2.56 3.392 3.52l1.408 2.816c-0.896 2.816 0.448 5.376-0.448 8.704l-0.96 0.896c-2.24 0-4.288 0.512-7.040 0.512l-3.136 4.032v2.688c1.344 1.472 2.24 3.52 3.584 5.376l3.648 0.512c1.6 0 2.56 0.896 3.84 2.304 0.448 0.96 0.448 2.816 1.856 4.032l2.688 0.448 0.64 1.408 0.96 0.96c2.374 0.893 5.118 1.41 7.983 1.41 0.119 0 0.237-0.001 0.355-0.003 2.286 0 2.734 2.368 5.422 2.816 2.112 0 3.008 1.6 5.696 2.112 2.304 0 5.696-0.512 8.32 0.896 2.752-1.408 5.312-0.448 8.448-0.896 4.245-0.995 7.875-3.198 10.613-6.223-0.373 1.743 0.779 2.703 2.059 4.111 2.304 1.216 4.096 0 7.040 0.704 0.896-2.112 4.096-1.664 5.44-3.52 0.96-0.448 0.96-3.328 2.56-4.224 2.24-2.112 3.136-4.928 6.72-7.232 0.448-1.92 0-4.48 2.048-5.888l1.408-0.96c1.344-0.896 0.896-4.48 2.688-5.888 2.618-1.558 4.438-4.222 4.82-7.331 0.876-1.373 2.22-3.229 3.564-5.085 1.408 0 2.304-0.96 4.352-1.344 0.448-1.152 0.448-3.584 2.24-4.032 0.448-3.776 1.792-7.232 2.752-11.52 0.896 0 2.048-1.856 2.496-3.456l2.24-2.368c5.696-1.92 13.184-0.96 19.52-1.472 2.432-1.792 4.8-2.752 7.040-4.928 1.792 0 4.736 0.512 7.040-0.896 1.344-1.92 3.2-4.224 6.144-5.824 0.448-1.408 0.896-2.368 2.688-3.328 0.896-1.408 1.408-2.816 2.24-5.376l0.448-2.816 1.6-0.448c1.856-0.512 3.648-2.816 5.44-4.224 4.736 0 8.384 2.304 13.632 3.712 2.24 1.92 2.24 4.928 5.632 5.888 0 1.856 2.304 2.752 1.856 5.632 1.792 2.56 4.032 3.008 7.488 3.968 2.24 3.264 6.528 5.888 9.728 8.64h2.688l2.56 1.92h1.28l2.752-2.432c0.448-1.344 0.448-2.304 0-4.416-1.582-1.403-2.687-3.313-3.060-5.474 0.308-1.31 1.204-3.23 0.308-5.982 1.041-1.8 1.655-3.959 1.655-6.261 0-1.907-0.421-3.715-1.175-5.337l-1.375-1.074c-3.392-13.888 0-29.824-1.792-44.8-0.64-1.408-1.152-4.224-2.56-5.888-1.28-0.512-1.792-1.408-2.688-3.776-5.632 0.512-11.328 0.96-16.768-1.92l-0.448-3.008c-1.408-1.856-4.8-2.304-6.144-5.12 0-1.408 1.344-4.032 1.344-5.824 0.96-3.84 4.8-6.4 4.8-11.52 3.712-4.992 2.368-12.224 4.16-19.072-1.792-1.856-3.2-4.672-5.44-7.040-1.152-4.032 0-7.68-2.496-11.712l-0.896-0.96c-1.344-0.512-2.304-0.512-4.096 0l-0.896 2.816c-1.312 0.997-2.955 1.623-4.74 1.695-1.852-2.591-2.748-6.431-5.244-10.399-3.2-3.2-7.040-6.528-10.24-11.008 0-1.92 1.408-2.368 2.304-4.224 0-2.56-1.408-3.072-2.24-5.44l-2.752-1.856c-6.592-1.6-12.736 0-19.712 1.408-1.408-0.448-3.2-0.448-4.096-1.856-0.96-1.664-1.856-3.072-3.008-5.888v-1.408l-2.24-2.56c-0.448-1.408-1.792-1.92-2.24-4.224v-1.408c0-3.072-3.84-3.968-4.352-7.296l-0.896-2.816c-4.096-2.112-2.752-4.928-4.096-6.784-3.196-1.576-5.598-4.355-6.641-7.73l0.497-0.078c-4.728-4.227-11.003-6.81-17.881-6.81-0.419 0-0.835 0.010-1.249 0.029-1.989-0.962-3.781-1.346-5.573-3.778 0-1.6-0.896-2.56-1.408-4.416-0.896-1.408-1.28-2.368-3.392-4.224 0-1.6-0.896-2.56-1.344-4.48l-2.752-2.752c-0.448-0.96-0.448-3.072-1.792-4.032h-1.536c-0.96-0.96-1.408-2.368-2.752-3.776-3.648-0.896-5.632-3.456-9.728-3.456-0.512 2.112-1.856 2.56-2.752 5.376 0.842 1.195 1.347 2.68 1.347 4.284 0 0.069-0.001 0.138-0.003 0.206l1.856 1.846c3.648 6.784-0.896 15.424 1.792 23.040l2.24 1.6c1.6 0.96 1.152 4.16 2.944 5.632-0.015 2.631-0.495 5.146-1.361 7.472-2.479 0.208-2.927-2.096-5.679-2.608-1.28 0-2.24-0.448-4.288-0.896-2.304-1.92-2.688-4.48-4.032-7.232-0.448-1.472-1.856-1.92-3.2-4.032 0-1.408-1.152-2.368-1.6-4.288-2.688-1.344-5.44-3.2-9.728-4.928-5.969-7.147-10.312-15.86-12.336-25.428 5.296 12.116 3.44 12.116 3.952 9.748-1.792-1.664-3.648-3.072-5.696-5.44-1.792 0-2.688-1.344-5.44-1.792-1.344 0-2.496 0.448-4.352 0.896-1.28 0-3.2-0.448-4.032-1.408-2.496-1.152 0-3.52-0.896-5.824 0.896-2.816 2.752-4.48 4.48-6.848 2.752-0.896 6.656 0 9.792-0.448 4.613-1.031 8.408-3.92 10.629-7.821l-0.645-5.811-2.496-1.408 1.408-2.816c1.6 0 2.432-0.96 4.288-0.96 2.688 2.368 6.080 5.12 7.936 9.152l2.688 0.512c3.84 4.16 9.792 9.088 16.832 8.64l2.944-3.712c2.24 0 4.096-1.216 7.040-2.56l1.408 0.896c2.176 0 3.584-2.368 7.040-2.368 1.28 0.512 2.24 0 4.032 0.512 1.792 0 2.304-1.408 4.288-2.368l0.96-3.008c-5.93-7.452-14.039-12.942-23.357-15.522l7.421 1.634c-1.344-1.408-4.736-0.512-7.040-1.92l-0.896-1.152c-0.896-1.856-0.448-5.12-2.24-7.040l-1.6-1.024c-2.228-3.63-3.774-7.915-4.345-12.504-2.055 3.8-6.279 1.432-8.583-4.392-1.408-1.408-3.456-1.92-3.84-4.736-1.408-0.448-1.856-2.304-3.2-4.416 0-2.816 2.688-2.368 3.584-4.736 2.048-1.856 5.76-0.896 8.384-1.408 2.048-2.56 4.8-0.896 6.144-3.968l2.688-1.408c1.6-1.408 1.152-4.928 1.6-7.232l3.2-3.776c0.448-6.784 3.648-13.12 2.752-20.416l0.448-1.408c1.984-2.368 5.632-2.368 7.936-6.4 2.951-4.209 4.975-9.275 5.665-14.757l1.375 3.301c0.896-2.304 2.944-5.376 2.944-8.64 2.366-3.416 5.732-5.993 9.67-7.326l-1.734-1.826c-1.6-3.072-5.248-4.48-7.936-7.232-1.6-0.512-2.048-1.92-4.288-2.432h-4.096l-1.6-2.56 1.088-0.96c2.752-0.896 6.4 0.512 9.792 0 3.522-4.65 8.369-8.13 13.976-9.896-4.248-3.416-2.392-8.792-2.84-15.192l-1.408-4.16c-2.24-3.584 0-8.704 0-13.184l-0.896-1.408c-1.344-0.96-3.392-1.792-5.632-2.816-1.856-2.176-2.304-5.376-5.056-7.68-0.64-4.992-3.328-8.704-5.12-13.184 0-2.816-1.92-3.712-2.304-7.296 0-1.856-1.6-2.816-2.048-5.568 0-1.472 0-4.032-0.96-5.888-0.896-0.512-2.688-0.512-3.648-1.92 0-0.896 0-3.456-1.728-3.904-1.152-3.776 0.448-7.296 0.448-11.52-1.152-2.816-2.944-4.928-3.84-8.704l-0.96-0.96-1.344-0.448-0.896-0.896c-0.896-1.664 0-2.56-0.896-4.48l-2.496-1.92c-2.304-1.408-2.304-6.272-4.544-8.192l-2.496-1.92c-2.24-0.896-4.032 0-6.784-0.448l-2.048-2.56c-0.896-1.408 0-3.712 0-5.568l-2.304-1.664c-3.2-1.92-4.032-6.144-7.936-9.152-1.344 0-2.24-0.96-4.032-1.408l-1.152-0.96c-0.448-1.92 2.432-0.96 2.944-3.328l-0.896-0.896h-4.352c-0.896-3.008-4.928-3.008-6.592-5.824 0-4.032-3.2-6.4-5.888-8.256h-1.536c-3.2-3.968-8.832-5.376-14.336-4.992l-3.84-3.2c-2.688-0.512-4.992 0.896-8.32-1.024l-1.408-1.344c-3.648-0.96-6.592-5.44-11.136-6.784l-1.536 0.896c-1.856-0.512-2.752-1.92-5.504-2.368l-1.28 0.512c-0.512 1.408 0 2.368-0.512 4.224l-2.496 0.96c-0.896-0.512-0.896-2.368-1.792-3.84l-2.304-1.792h-4.288c-2.423-0.307-4.456-1.743-5.579-3.756 0.139-1.684-1.461-1.684-1.909-4.052-3.2-2.56-8.32-1.408-12.48-2.56l-1.28-2.304c-1.251-0.874-2.801-1.4-4.474-1.409-2.63-0.511-4.038-3.327-6.982-4.927-0.739 0.082-1.597 0.129-2.465 0.129-1.941 0-3.828-0.234-5.633-0.674l-1.118-1.375c-1.472-0.512-1.92-1.92-4.16-2.304-1.6 0-2.496-0.512-4.288-1.024l-1.472-2.56 1.472-0.896c0.832-1.408 1.792-2.88 2.688-5.632 0-2.56-2.304-4.48-2.304-7.296-0.448-1.408-3.584-0.896-4.48-3.072v-1.28c5.376-2.496 10.688 0 16.768-2.048l1.792-2.304c0-1.408 0-3.968-0.896-5.824l-2.944-0.96c-1.792-1.408-3.2-3.776-5.44-6.336-0.448-3.328 1.408-8.192-0.896-11.52l-2.944-1.408-1.344-3.008c-2.625-1.987-5.889-3.26-9.439-3.478 0.991-1.706-1.761-1.258-2.593-2.666h-9.536z"  horiz-adv-x="1024" />

    
    <glyph glyph-name="shijian" unicode="&#58882;" d="M408 834.4h204.8v-80h-204.8zM214.4 592.8h440.8v-80h-440.8zM214.4 407.2h594.4v-80h-594.4zM214.4 226.4h230.4v-80h-230.4zM256.8 896h80v-203.2h-80zM688 896h80v-203.2h-80zM843.2 834.4v-80h100.8v-802.4h-864v802.4h100.8v80h-180.8v-962.4h1024v962.4z"  horiz-adv-x="1024" />

    
    <glyph glyph-name="tongzhi" unicode="&#58991;" d="M667.435858 876.910925l-320.764629-190.890745V77.896804l320.764629-190.890746c60.675987-34.087633 112.830066-8.521908 112.830065 60.675987V816.234938c0 68.175266-52.154079 103.967281-112.830065 60.675987zM0 555.123668v-345.6486A133.282646 133.282646 0 0 1 129.873882 77.896804h130.214759V686.02018H129.873882A133.282646 133.282646 0 0 1 0 555.123668z m1170.228447-129.873882h-173.165176a43.291294 43.291294 0 0 1 0-86.582588h173.506052a43.291294 43.291294 0 1 1 0 86.582588z m-25.906601-443.139232l-147.258575 86.582589A44.654799 44.654799 0 1 1 954.453729-7.322279l146.576823-85.219083a45.677428 45.677428 0 0 1 60.675987 17.384693 53.517584 53.517584 0 0 1-17.384693 60.675987zM988.541362 694.882964l147.258576 86.582589a49.767944 49.767944 0 0 1 17.384692 60.675987 41.586912 41.586912 0 0 1-52.154078 17.384692L954.453729 772.943644a49.767944 49.767944 0 0 1-17.384693-60.675987A41.586912 41.586912 0 0 1 988.541362 694.882964z"  horiz-adv-x="1215" />

    
    <glyph glyph-name="xitongguanli" unicode="&#59032;" d="M977.92 501.76c20.48 20.48 25.6 51.2 15.36 76.8-20.48 40.96-40.96 81.92-71.68 117.76-15.36 20.48-46.08 30.72-76.8 25.6-40.96-10.24-87.04-5.12-122.88 20.48-35.84 20.48-66.56 56.32-76.8 97.28-10.24 25.6-30.72 46.08-61.44 51.2-46.08 5.12-97.28 5.12-143.36 0-30.72-5.12-51.2-25.6-61.44-51.2-10.24-40.96-40.96-76.8-76.8-97.28-35.84-20.48-81.92-25.6-122.88-20.48-30.72 10.24-56.32 0-76.8-25.6-30.72-35.84-51.2-76.8-71.68-117.76-10.24-25.6-5.12-56.32 15.36-76.8 61.44-66.56 61.44-163.84 0-230.4-20.48-20.48-25.6-51.2-15.36-76.8 20.48-46.08 40.96-87.04 71.68-122.88 15.36-20.48 46.08-30.72 76.8-25.6 87.04 20.48 174.08-30.72 204.8-117.76 10.24-25.6 30.72-46.08 61.44-51.2 20.48-5.12 40.96-5.12 66.56-5.12s46.08 0 71.68 5.12c30.72 5.12 51.2 25.6 61.44 51.2 15.36 40.96 40.96 76.8 76.8 97.28 35.84 20.48 81.92 25.6 122.88 20.48 25.6-5.12 56.32 5.12 76.8 25.6 30.72 35.84 51.2 76.8 71.68 122.88 10.24 25.6 5.12 56.32-15.36 76.8-61.44 61.44-61.44 163.84 0 230.4zM512 189.44c-107.52 0-199.68 87.04-199.68 194.56 0 107.52 87.04 194.56 199.68 194.56 107.52 0 199.68-87.04 199.68-194.56 0-107.52-92.16-194.56-199.68-194.56z"  horiz-adv-x="1024" />

    
    <glyph glyph-name="fengxian" unicode="&#58891;" d="M908.57643 754.702377c-230.270185 0-390.180036 127.927881-390.180036 134.324274-12.792788 12.792788-31.98197 6.396394-44.774758-6.396394-83.153122-102.342305-294.234126-127.927881-390.180036-127.92788-12.792788 0-19.189182 0-25.585576-6.396394-6.396394-6.396394-6.396394-12.792788-6.396394-25.585577v-364.59446c0-159.909851 249.459367-479.729552 447.747582-479.729552 211.081003 0 447.747582 326.216096 447.747582 466.936764V722.720406c0 19.189182-19.189182 31.98197-38.378364 31.981971z m-31.98197-409.369219c0-108.738699-211.081003-402.972824-377.387248-402.972824-159.909851 0-383.783642 287.837731-383.783642 415.765612V690.738436c83.153122 6.396394 281.441337 25.585576 390.180036 127.927881 51.171152-38.378364 191.891821-121.531487 377.387248-127.927881l-6.396394-345.405278z m0 0M499.207212 300.5584c19.189182 0 38.378364 19.189182 38.378364 38.378364l12.792788 249.459368c0 19.189182 0 57.567546-57.567546 57.567546-51.171152 0-57.567546-31.98197-57.567546-57.567546L448.03606 338.936764c6.396394-19.189182 25.585576-38.378364 51.171152-38.378364z m0-44.774758c-31.98197 0-57.567546-25.585576-57.567546-57.567546s25.585576-57.567546 57.567546-57.567547 57.567546 25.585576 57.567546 57.567547c-6.396394 25.585576-31.98197 57.567546-57.567546 57.567546z m0 0"  horiz-adv-x="1024" />

    
    <glyph glyph-name="wuziku" unicode="&#59799;" d="M939.6-64c-12.2 0-20.4 8.2-20.4 20.4V494c0 6.1-2 12.2-8.1 16.3L524.2 787.2c-4.1 4.1-8.2 4.1-12.2 4.1-4.1 0-8.1 0-12.2-4.1l-386.9-279c-6.1-2-8.1-8.1-8.1-14.3v-537.6c0-12.2-8.1-20.4-20.4-20.4S64-55.9 64-43.6V494c0 18.3 8.1 36.7 24.4 48.9l386.9 279c10.2 6 24.5 10.1 36.7 10.1 12.2 0 26.5-4.1 36.7-12.2l386.9-279c16.3-12.2 24.4-28.5 24.4-48.9v-535.6c0-12.2-8.1-20.3-20.4-20.3zM226.9 424.7h81.4c34.6 0 61.1-26.5 61.1-61.1v-81.4c0-34.6-26.5-61.1-61.1-61.1h-81.4c-34.6 0-61.1 26.5-61.1 61.1v81.4c0 34.7 26.5 61.1 61.1 61.1z m0-285.1h81.4c34.6 0 61.1-26.5 61.1-61.1V-3c0-34.6-26.5-61.1-61.1-61.1h-81.4c-34.6 0-61.1 26.5-61.1 61.1v81.5c0 34.7 26.5 61.1 61.1 61.1z m305.5 0h81.4c34.6 0 61.1-26.5 61.1-61.1V-3c0-34.6-26.5-61.1-61.1-61.1h-81.4c-34.6 0-61.1 26.5-61.1 61.1v81.5c0 34.7 26.4 61.1 61.1 61.1z"  horiz-adv-x="1024" />

    
    <glyph glyph-name="jianceshuju" unicode="&#58999;" d="M948.75136 294.74816c-2.49856 0-281.25184 458.752-281.25184 458.752 16.25088 13.75232 21.248 28.7488 21.248 51.2512 0 42.50112-33.75104 77.50144-76.25216 78.75072-82.49856 1.24928-85.00224-85.00224-82.49856-88.75008L217.4976 678.5024c-13.75232 19.99872-33.75104 27.49952-58.752 27.49952A78.42304 78.42304 0 0 1 79.99488 627.2512c0-35.00032 18.74944-64.9984 50.00192-74.99776l-71.24992-300.00128C23.74656 244.75136 1.24928 213.504 1.24928 176a78.42304 78.42304 0 0 1 78.75072-78.75072c23.75168 0 44.99968 9.99936 61.25056 27.49952l292.50048-162.49856v-2.49856a78.42304 78.42304 0 0 1 78.75072-78.75072c47.49824 0 78.75072 42.50112 73.74848 83.74784l311.24992 182.5024c13.75232-9.99936 31.25248-11.24864 48.74752-11.24864a78.42304 78.42304 0 0 1 78.75072 78.75072c-1.24928 39.99744-37.49888 81.24416-76.24704 79.99488zM607.49824 845.99808c21.248 0 38.74816-17.50016 38.74816-38.74816s-17.50016-38.74816-38.74816-38.74816-38.74816 17.50016-38.74816 38.74816c0 19.99872 17.50016 38.74816 38.74816 38.74816z m-61.25056-407.49568L403.74784 521.00096l182.5024 210.00192c2.49856 0-3.74784 0 0 0l-40.00256-292.50048z m33.75104-62.50496l242.49856-136.24832-259.99872-9.99936 17.50016 146.24768z m-42.50112 21.25312l-17.50016-173.75232-126.24896-6.25152-87.5008 181.248L380.00128 488.4992l157.49632-91.24864z m7.5008 361.25184c2.49856-3.74784 6.25152-6.25152 7.5008-9.99936L372.50048 539.7504 232.4992 619.7504v9.99936c0 3.74784 0 9.99936-2.49856 13.75232l314.99776 115.00032zM221.25056 585.99936l128.74752-72.4992-64.9984-74.99776-66.24768 144.9984 2.49856 2.49856z m-105.00096 43.7504c0 21.248 17.50016 38.74816 38.74816 38.74816s38.74816-17.50016 38.74816-38.74816-17.50016-38.74816-38.74816-38.74816-38.74816 16.25088-38.74816 38.74816z m-38.74816-491.24864c-21.248 0-38.74816 17.50016-38.74816 38.74816s17.50016 38.74816 38.74816 38.74816 38.74816-17.50016 38.74816-38.74816-17.50016-38.74816-38.74816-38.74816z m43.7504 106.25024c-6.25152 3.74784-11.24864 6.25152-19.99872 9.99936L172.49792 554.752c6.25152 2.49856 9.99936 0 16.25088 2.49856l71.24992-151.24992-138.74688-161.24928z m24.99584-27.49952l128.74752 153.74848 71.24992-158.75072-196.2496-8.75008c-3.74784 7.5008 0.00512 7.5008-3.74784 13.75232z m295.00416-211.2512l-280.00256 154.99776 203.7504 11.24864 74.99776-161.24928c-1.24928-3.74784 2.50368 0 1.2544-4.99712z m-32.50176 167.5008l103.75168 6.25152-17.50016-140.00128c-7.5008-2.49856-13.75232-3.74784-19.99872-6.25152l-66.2528 140.00128z m101.248-251.25376c-21.248 0-38.74816 17.50016-38.74816 38.74816s17.50016 38.74816 38.74816 38.74816 38.74816-17.50016 38.74816-38.74816-17.49504-38.74816-38.74816-38.74816z m63.75424 82.50368c-9.99936 13.75232-23.75168 25.00096-41.25184 31.25248l19.99872 143.74912 312.4992 16.25088c2.49856-6.25152 3.74784-11.24864 6.25152-17.50016l-297.4976-173.75232z m298.74688 249.99936l-288.74752 165.00224 41.25184 310.00064c2.49856 0 3.74784 0 3.74784 2.49856l272.50176-446.24896c-11.25376-6.25152-22.5024-17.50528-28.75392-31.25248z m68.75136-77.50144c-21.248 0-38.74816 17.50016-38.74816 38.74816s17.50016 38.74816 38.74816 38.74816 38.74816-17.50016 38.74816-38.74816c1.24928-19.99872-16.25088-38.74816-38.74816-38.74816z"  horiz-adv-x="1024" />

    
    <glyph glyph-name="zaixianshujufenxi" unicode="&#58924;" d="M1185.734444-87.885323h-76.073328V290.011795a19.093622 19.093622 0 0 1-5.36067 13.311326 18.069674 18.069674 0 0 1-12.949934 5.541367h-221.41374a18.069674 18.069674 0 0 1-12.949933-5.541367 19.093622 19.093622 0 0 1-5.36067-13.311326v-377.897118h-115.766379V600.990886a19.153855 19.153855 0 0 1-5.300438 13.371559 18.069674 18.069674 0 0 1-13.010165 5.601599H496.195679a18.069674 18.069674 0 0 1-13.010165-5.601599 19.153855 19.153855 0 0 1-5.36067-13.371559v-688.876209H362.118697V381.685275a19.214087 19.214087 0 0 1-5.420902 13.371559 18.129906 18.129906 0 0 1-13.010165 5.541366H122.334122a18.069674 18.069674 0 0 1-13.010166-5.541366 19.153855 19.153855 0 0 1-5.36067-13.371559v-469.570598H18.794889a18.671997 18.671997 0 0 1-18.431068-18.912926 18.671997 18.671997 0 0 1 18.431068-18.973158h95.16695a18.671997 18.671997 0 0 1 8.372283-2.168361H343.68763a18.370835 18.370835 0 0 1 8.372282 2.168361h135.763485c2.589987-1.385342 5.420902-2.108129 8.372282-2.168361h221.353508a18.370835 18.370835 0 0 1 8.372282 2.168361h135.703253c2.589987-1.385342 5.420902-2.108129 8.31205-2.168361h221.41374a18.370835 18.370835 0 0 1 8.372283 2.168361h86.011649a18.671997 18.671997 0 0 1 18.431067 18.973158 18.671997 18.671997 0 0 1-18.431067 18.912926z m-297.366604 358.984192h184.672069v-358.984192h-184.672069v358.984192zM514.506282 582.138193h184.611837v-670.023516H514.506282V582.138193zM140.704957 362.892814h184.672069v-450.717905H140.704957V362.832581z m92.336035 160.518938c21.804073 0 42.283037 10.661108 55.293202 28.610317 13.010165 17.94921 16.985494 41.138625 10.841805 62.641537l264.058171 155.218501c25.297544-21.44268 61.798285-21.502912 87.095829-0.120464l276.466014-222.076295a71.676374 71.676374 0 0 1-4.999276-26.26126c0-39.150961 30.959375-70.893355 69.026155-70.833123 38.127012 0 68.965923 31.802626 68.965923 71.01382 0 39.150961-30.899143 70.893355-68.965923 70.953587-15.178526 0-29.875195-5.179973-41.861412-14.756901l-277.369497 222.859314a71.917303 71.917303 0 0 1-37.223529 89.444887c-25.297544 11.323662-54.630648 6.023225-74.687986-13.311326a72.399161 72.399161 0 0 1-17.708281-75.892632L279.600519 646.767394a67.460117 67.460117 0 0 1-82.81934 7.950657c-26.26126-16.684332-38.548638-49.209746-30.116124-79.747495 8.432515-30.477517 35.537026-51.558803 66.375937-51.558804z m790.006152-1.987664c0-18.310603-14.455739-33.127736-32.284484-33.127736a32.766342 32.766342 0 0 0-32.224252 33.2482c0 18.310603 14.455739 33.127736 32.284484 33.127736a32.826575 32.826575 0 0 0 32.224252-33.2482z m-416.204827 336.698261c13.070398 0 24.93615-8.071121 29.935427-20.478964a33.970987 33.970987 0 0 0-6.926709-36.320045 31.682162 31.682162 0 0 0-35.296096-7.22787 33.308433 33.308433 0 0 0-19.936874 30.718446c0 18.370835 14.455739 33.2482 32.224252 33.248201zM233.040992 627.61354c17.888977 0 32.344717-14.817133 32.404949-33.187969 0-18.431068-14.455739-33.308433-32.344717-33.368664a32.826575 32.826575 0 0 0-32.344717 33.2482c0 18.370835 14.455739 33.2482 32.284485 33.308433z"  horiz-adv-x="1205" />

    
    <glyph glyph-name="fenxi" unicode="&#58995;" d="M297.8-100.536a30.12 30.12 0 0 0-0.024 60.232h428.416a30.12 30.12 0 0 0 0-60.232H297.8zM873.408 868.536H150.592c-66.536 0-120.472-53.936-120.472-120.472v-556.272c0-66.536 53.936-120.472 120.472-120.472h722.824c66.536 0 120.472 53.936 120.472 120.472V748.064c-0.008 66.536-53.944 120.472-120.48 120.472z m-43.968-246.248L597.176 349.064c-1.504-1.808-1.504-1.808-3.136-3.376a42.176 42.176 0 0 0-59.608 1.656l-0.024 0.024-131.136 138.848-165.52-150.16a30.112 30.112 0 0 0-40.472 44.576l178.656 162.152a42.16 42.16 0 0 0 59.032-2.232l129.384-137.096 219.192 257.864a30.128 30.128 0 0 0 45.896-39.032z"  horiz-adv-x="1024" />

    
    <glyph glyph-name="chenjiwu" unicode="&#58987;" d="M866.599 574.692h125.196v-37.926H866.599zM611.42 404.941h108.626v-42.346H611.42z m-47.132 169.751h99.052v-37.926h-99.052z m396.578-351.286h24.303v-42.346h-24.303z m-73.278 181.535h97.58v-42.346h-97.58z m-68.489-181.535h113.413v-42.346H819.099z m-68.49 181.535h106.417v-42.346H750.609z m-49.341 169.751h108.626v-37.926H701.268z m-19.149-351.286h108.626v-42.346H682.119zM573.493 58.074h113.413v-42.346H573.493z m144.345 0h125.196v-42.346H717.838z m158.335 0H982.59v-42.346H876.173zM540.352 223.406h103.839v-42.346H540.352z m-117.83 351.286h103.839v-37.926H422.522zM63.503 747.022v-726.507h453.284v3.314L253.139 747.022z m396.945-342.081h120.409v-42.346H460.448z"  horiz-adv-x="1024" />

    
    <glyph glyph-name="caidanlan" unicode="&#58902;" d="M511.3 704.2l388.8-193.7-388-191.6-386.9 192.2 386.1 193.1m0 60c-9.2 0-18.4-2.1-26.8-6.3L98.4 564.7c-20.3-10.2-33.2-31-33.2-53.7 0-22.8 12.9-43.5 33.3-53.7l386.9-192.2c8.4-4.2 17.6-6.3 26.7-6.3 9.1 0 18.2 2.1 26.6 6.2l388.1 191.7c20.4 10.1 33.4 30.9 33.4 53.7 0 22.8-12.8 43.6-33.3 53.8L538.1 757.9c-8.4 4.2-17.6 6.3-26.8 6.3zM512.1 128.9c-4.8 0-9.7 1.2-14.1 3.5L79.1 354.6c-14.6 7.8-20.2 25.9-12.4 40.6 7.8 14.6 25.9 20.2 40.6 12.4l404.9-214.7 405 214.2c14.6 7.7 32.8 2.2 40.5-12.5 7.7-14.6 2.2-32.8-12.5-40.5L526.1 132.4c-4.4-2.4-9.2-3.5-14-3.5zM512.1-1.1c-4.9 0-9.9 1.2-14.4 3.7L80.8 229.7c-14.5 7.9-19.9 26.1-12 40.7 7.9 14.5 26.1 19.9 40.7 12L512.1 63l403.7 218.9c14.6 7.9 32.8 2.5 40.7-12.1s2.5-32.8-12.1-40.7l-418-226.6c-4.5-2.4-9.4-3.6-14.3-3.6z"  horiz-adv-x="1024" />

    
    <glyph glyph-name="shuizhi" unicode="&#58927;" d="M702.426973 406.988039l231.006748-342.07635c13.521472-20.187491 21.411131-47.10244 21.411131-72.896146 0-63.931322-37.185328-120.008825-145.362225-120.008825H215.623257C107.44636-127.993282 69.134669-71.915779 69.134669-7.984457c0 25.793706 7.884539 52.708654 21.41113 74.022509l113.813831 167.106145L317.041977 406.988039c29.300789 47.10244 46.20135 102.0587 46.20135 160.378687V779.343065c0 15.70252-3.379088 30.283797-9.010901 43.743831h-30.427153c-18.032043 0-33.81136 14.576157-33.81136 33.642406V862.340636C289.993913 880.280522 304.646868 895.983042 323.805273 895.983042h377.495337c18.032043 0 33.80624-14.581277 33.80624-33.642406v-6.732577c0-17.945006-14.652955-33.647526-33.80624-33.647525h-33.80624c-4.505451-12.333671-9.016021-26.914949-9.016022-42.617469v-213.092462c0-57.203865 14.647835-113.281368 43.948625-159.262564z m-61.975548-38.132497c-37.185328 58.319988-55.217371 127.852405-55.217371 198.511184V821.960534H437.619104v-254.593808c0-72.901265-20.284768-141.312439-56.348854-198.511184L151.394984 24.536706c-5.631813-8.969943-9.016021-21.308734-9.016021-32.521163 0-14.586397 7.884539-24.677583 13.521472-30.283797 10.147504-10.096306 28.174427-17.945006 58.596459-17.945005h594.985733c29.29055 0 46.19623 7.8487 56.343734 16.823763 6.758176 5.606214 15.774198 16.818643 15.774197 31.405039 0 11.212429-3.379088 23.55122-9.016021 32.521163l-232.133112 344.318836z m153.251884-390.300033H230.276211c-16.90056 0-31.553515 14.576157-31.553515 31.39992 0 6.727457 2.257845 13.465154 5.636934 17.945006l187.058124 281.508756h238.891287l189.31085-281.508756v1.121243c3.379088-4.484971 5.636933-12.338791 5.636933-17.939886 0-16.828883-13.526592-32.526283-31.553515-32.526283z"  horiz-adv-x="1024" />

    
    <glyph glyph-name="zhandianweizhi" unicode="&#58889;" d="M509 115.9c-7.2 0-11.8 3.3-14.4 5.8l-3.8 3.8c-127 126-194.1 230-194.1 300.8 0 114.1 92.8 206.9 206.9 206.9 114.1 0 206.9-92.8 206.9-206.9 0-101.8-137.3-286.1-189.4-307.7-4.7-2-8.7-2.7-12.1-2.7z m3.5 23.7z m-8.9 468.2c-100.1 0-181.6-81.5-181.6-181.6 0-36.4 24.3-121.6 186.7-282.8l1.9-1.9c31.4 8.3 174.5 186.7 174.5 284.7 0 100.1-81.4 181.6-181.5 181.6zM512-63.6C265.2-63.6 64.4 137.2 64.4 384S265.2 831.6 512 831.6 959.6 630.8 959.6 384 758.8-63.6 512-63.6z m0 861.4C283.8 797.8 98.2 612.2 98.2 384S283.8-29.8 512-29.8 925.8 155.8 925.8 384 740.2 797.8 512 797.8zM512 320.7c-51.2 0-92.9 41.7-92.9 92.9s41.7 92.9 92.9 92.9 92.9-41.7 92.9-92.9-41.7-92.9-92.9-92.9z m0 160.4c-37.3 0-67.6-30.3-67.6-67.6S474.7 346 512 346s67.6 30.3 67.6 67.6-30.3 67.5-67.6 67.5z"  horiz-adv-x="1024" />

    
    <glyph glyph-name="ic_forward_px" unicode="&#58909;" d="M512 554.666667V725.333333l341.333333-341.333333-341.333333-341.333333v170.666666H170.666667V554.666667z"  horiz-adv-x="1024" />

    
    <glyph glyph-name="mulu" unicode="&#58921;" d="M704 312H360a72 72 0 0 0 0 144h344a72 72 0 0 0 0-144z m96 232H360a72 72 0 0 0 0 144h440a72 72 0 0 0 0-144z m-656-464a72 72 0 1 0 72 72 72 72 0 0 0-72-72z m0 232a72 72 0 1 0 72 72 72 72 0 0 0-72-72z m0 232a72 72 0 1 0 72 72 72 72 0 0 0-72-72z m216-320h520a72 72 0 0 0 0-144H360a72 72 0 0 0 0 144z"  horiz-adv-x="1024" />

    
    <glyph glyph-name="pingjiabiaozhun" unicode="&#59027;" d="M1022.293333 431.786667l-1.706666-5.12h1.706666v-88.746667c0-11.946667-1.706667-23.893333-6.826666-34.133333l-141.653334-325.973334c-15.36-37.546667-42.666667-56.32-85.333333-56.32H372.053333c-23.893333 0-46.08 10.24-64.853333 29.013334-18.773333 18.773333-29.013333 40.96-29.013333 64.853333v460.8c0 23.893333 10.24 46.08 29.013333 64.853333l305.493333 307.2 49.493334-49.493333c13.653333-13.653333 18.773333-29.013333 18.773333-47.786667v-15.36l-46.08-213.333333h293.546667c23.893333 0 46.08-8.533333 64.853333-27.306667 20.48-17.066667 29.013333-39.253333 29.013333-63.146666zM0-80.213333V476.16h187.733333v-558.08H0z m0 0"  horiz-adv-x="1024" />

    
    <glyph glyph-name="yingjijigou" unicode="&#58973;" d="M678.104 67.526V712.604c0 24.17-24.17 42.185-48.25 42.185H243.948c-18.105 0-30.145-5.975-36.12-18.105-12.04-12.04-12.04-24.17-12.04-36.21V61.46h-30.144c-12.04 0-18.105-5.975-18.105-18.105-5.974-12.04 0-18.105 5.975-24.17 5.974-5.975 12.04-5.975 24.17-5.975h723.472c12.04 0 18.105 5.975 18.105 18.105 5.975 12.04-5.975 30.145-18.105 30.145h-24.17v403.92c0 24.17-12.04 36.12-36.12 36.12H732.238v-428l-5.974-5.975h-48.16zM340.447 453.342v48.25h192.908v-48.25H340.447z m0-259.263v48.25h192.908v-48.25H340.447z m0 434.156h192.908v-48.25H352.487c-5.975 0-5.975 0-5.975 5.975-6.065 18.105-6.065 30.145-6.065 42.275z m0-259.353h192.908v-48.25H340.447v48.25z m0 0"  horiz-adv-x="1108" />

    
    <glyph glyph-name="zhuanjiaku" unicode="&#58881;" d="M875.747486 598.537577l-150.005547-64.994113c-1.118153-30.715374-4.300511-57.415745-10.136988-81.861904-9.14617-38.304686-24.905756-70.803732-48.940069-97.503108-12.471779-13.854548-24.183532-26.227842-34.47173-35.604805-3.73646-4.534288-6.785515-8.612959-8.969096-11.972391a50.954534 50.954534 0 0 1-1.57377-2.563594c-2.757579-12.499633-2.378561-26.892367 1.398685-46.57046 1.109199-5.779775 2.198503-10.193692 3.250999-13.37406a558.370008 558.370008 0 0 1 3.803112-2.565583c6.951646-4.650679 16.234104-10.683133 26.771996-17.413934a2872.5351 2872.5351 0 0 1 26.473557-16.707628c3.497709-2.178607 6.457232-4.00605 8.523427-5.265464 15.260197-7.493811 39.029893-22.729138 75.473312-47.207131 33.920612-22.784847 68.409254-46.922619 84.955725-59.561523 9.008888-6.884 19.559713-15.711835 28.467131-23.934833 5.474372-5.053572 10.366787-9.901222 14.6096-14.573787 6.874052-7.570411 12.143496-14.552896 16.44699-23.422512 7.123746-14.686199 11.281006-38.541448 11.298913-53.01277l0.087542-44.590813c0.069636-35.16212-28.378594-63.722762-63.540714-63.792398h-0.12634l-700.376387-0.039792c-35.16212 0-63.667054 28.505928-63.667054 63.667054v0.039792l0.039792 0.039791c0.014922 26.236795 0.023875 41.13787 0.023876 44.811658 0 13.976908 5.512174 39.247754 12.360361 53.176912 3.546454 7.214273 7.714656 12.942318 12.660791 18.488315 2.996331 3.359432 6.228428 6.557707 9.820643 9.822633 5.073468 4.610887 10.791566 9.298374 17.90039 14.817512 1.323081 1.027626 2.695902 2.084101 4.159249 3.203249a4665.928563 4665.928563 0 0 0 10.982567 8.332425c3.558391 2.701871 5.872291 4.495491 7.490826 5.809619 18.739999 15.207473 51.689689 39.17016 85.413332 62.373817 33.453057 23.017629 57.04767 38.336519 71.885078 45.556761a829.750825 829.750825 0 0 1 8.689558 5.232636 1631.929836 1631.929836 0 0 1 25.371321 15.793408c10.074316 6.403513 18.801677 12.130563 25.260898 16.606159 1.951793 1.618536 2.105987 1.99059 2.258191 2.367618 1.976663 4.857597 3.280843 9.326229 3.458911 10.831358 1.852313 15.587485 2.793392 30.29159 2.765538 41.55469a146.834132 146.834132 0 0 1-0.136287 6.252303 397.521166 397.521166 0 0 1-5.527096 10.311079 218.238722 218.238722 0 0 1-2.374583 4.160244 111.247233 111.247233 0 0 1-2.219393 3.640959 266.496359 266.496359 0 0 1-2.348718 2.211436c-0.730182 0.680442-4.443761 4.123437-5.551966 5.156036a486.819183 486.819183 0 0 0-6.897927 6.538805c-4.725289 4.576069-8.897471 8.860663-12.78713 13.23081-4.435803 4.983937-8.377192 9.940019-11.887833 15.14679-26.105482 38.711558-44.838517 97.094246-50.633214 159.18753L22.260788 624.437136C4.158454 631.327105-4.689276 650.979334 2.499132 668.330595c3.372364 8.13844 9.908185 14.7051 18.230663 18.317211L496.150585 892.989742c8.719402 3.784211 18.669369 4.009035 27.565845 0.623738l472.69604-179.920109c18.102334-6.890964 26.950065-26.542198 19.761656-43.893459-3.375349-8.146398-9.918133-14.717037-18.251553-18.327159l-90.34156-39.1433v-227.529138c27.414635-7.095892 47.75029-32.042434 47.75029-61.645625 0-35.107406-28.54771-63.667054-63.693913-63.667054-35.036775 0-63.640194 28.560642-63.640194 63.667054 0 29.620102 20.322722 54.580571 47.75029 61.658557V598.537577zM661.943572 576.998217C625.447429 620.580305 570.628106 648.295369 509.336629 648.295369c-60.494644 0-114.68426-26.99881-151.174434-69.605001a228.746771 228.746771 0 0 1-0.705312-18.091391c0-70.270521 20.178477-131.997719 41.640243-163.824282 9.39089-13.927168 30.018021-30.172215 35.639623-36.970662 7.30082-8.832809 18.98074-32.230451 21.762194-37.666026 4.148306-8.106607 4.410933-39.543209 0-76.672044-2.071169-17.438804-12.748333-40.109249-17.186125-45.835305-7.0561-9.103394-79.950897-53.370897-81.855935-54.101079C342.891055 139.953738 247.446183 74.307037 211.059467 44.777462c-13.210914-10.720935-41.598461-30.175199-45.999446-39.125394-2.732709-5.559924-5.829515-21.388151-5.829515-25.088799 0-3.697663-0.007958-18.616644-0.023875-44.851449h700.33759l-0.087542 44.624635c0 4.176161-2.184576 19.689036-4.914301 25.314618-4.326375 8.917367-27.271385 28.7218-40.89116 39.126389-31.352045 23.949755-136.429543 95.277746-151.107783 100.752117-1.687177 0.629707-77.102792 47.811968-83.154146 54.101079-10.343907 10.750779-15.399469 27.777737-18.866338 45.835305-5.157031 26.869486-6.372674 51.793148 0 76.672044 2.873971 11.218334 13.35317 26.244753 25.894584 40.925978 10.640356 9.170045 27.078394 27.211697 32.927804 33.71071 33.956425 37.719745 43.198096 93.520933 43.198096 163.824282 0 5.617623-0.204928 11.082047-0.599863 16.39924z m242.769439 103.474879l-393.34401 149.717056-397.470432-172.509861 174.419873-66.38882C335.595209 664.838855 417.922678 711.962423 509.336629 711.962423c86.792121 0 165.609944-42.495769 213.87156-110.13107l181.504822 78.641743zM891.626448 354.989212c-17.497497 0-31.795725-14.315139-31.795725-31.833527s14.222623-31.833527 31.795725-31.833527c17.575091 0 31.871329 14.314144 31.871329 31.833527 0 17.520377-14.221628 31.833527-31.871329 31.833527z"  horiz-adv-x="1024" />

    
    <glyph glyph-name="yuce" unicode="&#58883;" d="M688.796 230H864c17.673 0 32-14.327 32-32 0-17.673-14.327-32-32-32H701.848l-129.22-129.22c-7.587-7.587-18.036-10.568-27.871-8.943-12.612 1.503-23.643 10.485-27.131 23.503l-84.511 315.399-79.854-150.185c-4.392-8.26-11.888-13.806-20.285-15.968A31.972 31.972 0 0 0 323 199H160c-17.673 0-32 14.327-32 32 0 17.673 14.327 32 32 32h145.472l109.01 205.017c8.296 15.604 27.672 21.528 43.276 13.231 8.794-4.676 14.513-12.87 16.346-21.924a32.215 32.215 0 0 0 1.814-5.05l89.537-334.157 100.51 100.51c6.3 6.3 14.574 9.424 22.83 9.372z m272.207 410V832H64v-192h897.003z m0-64H64v-640h897.003V576zM64 896h897.003c35.346 0 64-28.654 64-64v-896c0-35.346-28.654-64-64-64H64c-35.346 0-64 28.654-64 64V832C0 867.346 28.654 896 64 896z m96-192c-17.673 0-32 14.327-32 32 0 17.673 14.327 32 32 32 17.673 0 32-14.327 32-32 0-17.673-14.327-32-32-32z m128 64h193c17.673 0 32-14.327 32-32 0-17.673-14.327-32-32-32H288c-17.673 0-32 14.327-32 32 0 17.673 14.327 32 32 32z"  horiz-adv-x="1025" />

    
    <glyph glyph-name="jianceyujing" unicode="&#58885;" d="M240.101-28.368h-72.178V305.9c0 189.69 153.739 343.538 343.538 343.538 189.773 0 343.51-153.876 343.51-343.538v-334.267H240.13z m296.213 539.344L366.856 231.894h135.528l-33.93-209.31 169.458 279.08H502.384l33.93 209.312zM796.19 817.567a33.488 33.488 0 0 0 12.177-45.61l-60.914-105.914-57.565 33.321L750.773 805.28a33.128 33.128 0 0 0 45.222 12.288h0.194zM511.35 896c19.926 0 36.033-15 36.033-33.626v-120.03h-72.067V862.458C475.317 881 491.424 896 511.351 896zM226.706 817.567a33.21 33.21 0 0 0 45.416-12.177l60.914-105.915-57.565-33.35-60.97 105.943a33.377 33.377 0 0 0 12.178 45.5zM18.31 608.256a33.128 33.128 0 0 0 45.388 12.177l105.527-61.218-33.21-57.787L30.457 562.73a33.377 33.377 0 0 0-12.177 45.526z m986.278 0a33.488 33.488 0 0 0-12.178-45.61l-105.5-61.135-33.21 57.814 105.5 61.191a33.21 33.21 0 0 0 45.305-12.066c0-0.111 0.083-0.111 0.083-0.194zM50.219-28.368h922.568c19.927 0 36.145-16.218 36.145-36.144s-16.218-36.144-36.145-36.144H50.22c-19.927 0-36.145 16.19-36.145 36.144a36.061 36.061 0 0 0 36.145 36.144z"  horiz-adv-x="1024" />

    
    <glyph glyph-name="huanjingjiance" unicode="&#58880;" d="M950.6 788c-6.2 7.1-15.2 11.2-24.6 11.2h-55.9c-211.9 0-370.9-2.2-489.1-30.8-61.4-12.3-118.9-39.1-167.7-78.3-47-40.6-80.4-94.7-95.6-154.9-11.4-47.4-13.6-96.5-6.4-144.7v-0.1l0.1-0.4v-0.1c2.8-18.5 6.9-36.7 12.3-54.5 8.4-27.1 21-52.7 37.3-75.9-64.2-102.8-96.8-151.3-96.8-263.1 0-8.6 3.4-16.8 9.5-22.9 6.1-6.1 14.3-9.5 22.9-9.5l0.6-0.9c8.6 0 16.9 3.4 23 9.6 6.1 6.1 9.5 14.4 9.4 23 0 98.9 29.2 170.1 67.2 225.3 59.1-62.6 138.4-90.7 223-98 12.7-1.5 25-1.5 37.3-1.5 64.7-0.3 128.3 16 184.9 47.3 78.2 46.1 142.3 112.8 185.3 192.7C886.2 463.6 930.5 598 958.9 761.8c1.2 9.5-1.8 19.1-8.3 26.2zM257.3 274.9c-22.2-25.1-72 8.6-51.8 30.8 35.1 38.4 236.8 254.4 502.9 302.2-274.7-111.5-420.8-298.9-451.1-333z m0 0"  horiz-adv-x="1024" />

    
    <glyph glyph-name="shuju" unicode="&#58888;" d="M42.666667 747.178667C42.666667 829.354667 241.322667 896 469.333333 896c228.053333 0 426.666667-66.645333 426.666667-148.821333s-198.613333-148.778667-426.666667-148.778667c-228.010667 0-426.666667 66.602667-426.666666 148.778667z m426.666666-390.741334c228.053333 0 426.666667 66.645333 426.666667 148.778667v104.106667c-103.168-74.154667-298.88-96.256-426.666667-96.256-128.256 0-323.754667 22.314667-426.666666 96.256v-104.106667c0-82.176 198.656-148.778667 426.666666-148.778667z m0-241.706666c14.506667 0 28.928 0.298667 43.136 0.810666a275.370667 275.370667 0 0 0 57.258667 159.786667c-35.797333-2.858667-70.101333-4.266667-100.394667-4.266667-128.256 0-323.754667 22.314667-426.666666 96.256v-103.850666c0-82.133333 198.656-148.736 426.666666-148.736z m53.504-84.053334c-18.688-0.853333-36.736-1.28-53.504-1.28-127.786667 0-323.498667 22.101333-426.666666 96.256v-104.874666C42.666667-61.354667 241.322667-128 469.333333-128c54.784 0 107.776 3.925333 156.842667 10.922667a277.632 277.632 0 0 0-103.338667 147.754666zM981.333333 106.666667c0-106.026667-86.058667-192-192-192S597.333333 0.64 597.333333 106.666667s86.058667 192 192 192 192-85.973333 192-192z m-92.416 54.997333l-88.021333-23.765333 39.082667 82.133333-59.178667-16.725333-62.549333-129.450667 74.197333 20.138667-50.218667-108.586667 146.688 176.256z"  horiz-adv-x="1024" />

    
    <glyph glyph-name="moban" unicode="&#58884;" d="M947.2 819.2v-234.666667H76.8V819.2h870.4m0 76.8H76.8C34.133333 896 0 861.866667 0 819.2v-234.666667c0-42.666667 34.133333-76.8 76.8-76.8h866.133333c42.666667 0 76.8 34.133333 76.8 76.8V819.2c4.266667 42.666667-29.866667 76.8-72.533333 76.8zM234.666667 345.6v-392.533333H76.8v392.533333h157.866667m0 76.8H76.8c-42.666667 0-76.8-34.133333-76.8-76.8v-392.533333c0-42.666667 34.133333-76.8 76.8-76.8h157.866667c42.666667 0 76.8 34.133333 76.8 76.8v392.533333c4.266667 42.666667-29.866667 76.8-76.8 76.8z m750.933333 0H435.2c-21.333333 0-38.4-17.066667-38.4-38.4s17.066667-38.4 38.4-38.4h550.4c21.333333 0 38.4 17.066667 38.4 38.4s-17.066667 38.4-38.4 38.4z m0-157.866667H435.2c-21.333333 0-38.4-17.066667-38.4-38.4s17.066667-38.4 38.4-38.4h550.4c21.333333 0 38.4 17.066667 38.4 38.4s-17.066667 38.4-38.4 38.4z m0-157.866666H435.2c-21.333333 0-38.4-17.066667-38.4-38.4s17.066667-38.4 38.4-38.4h550.4c21.333333 0 38.4 17.066667 38.4 38.4s-17.066667 38.4-38.4 38.4z m0-157.866667H435.2c-21.333333 0-38.4-17.066667-38.4-38.4s17.066667-38.4 38.4-38.4h550.4c21.333333 0 38.4 17.066667 38.4 38.4s-17.066667 38.4-38.4 38.4z"  horiz-adv-x="1024" />

    
    <glyph glyph-name="fenxipingjia" unicode="&#58890;" d="M477.184-124.416c-64.512 0-126.976 12.8-185.856 37.376-56.832 24.064-108.032 58.368-151.552 102.4-44.032 44.032-78.336 94.72-102.4 151.552C12.288 225.792 0 288.256 0 352.768s12.8 126.976 37.376 185.856c24.064 56.832 58.368 108.032 102.4 151.552s94.72 78.336 151.552 102.4C350.72 816.64 413.184 829.44 477.184 829.44H499.2v-462.336h455.168l-0.512-20.992c-1.536-125.952-52.224-244.224-141.824-332.8-89.088-89.088-208.384-137.728-334.848-137.728z m-19.456 911.36C226.816 776.704 41.984 585.728 41.984 352.256c0-240.128 195.072-435.2 435.2-435.2 229.888 0 420.352 181.248 434.688 408.576H457.728V786.944zM545.792 892.416v-487.424h479.744v6.144c0 265.728-214.528 480.768-479.744 481.28z"  horiz-adv-x="1025" />

    
    <glyph glyph-name="dongli" unicode="&#59081;" d="M576 592v-64h192a48 48 0 0 0 48-48v-176h64v97.376l14.08 14.08C961.216 385.536 1008 318.24 1008 240s-46.784-145.536-113.92-175.456l-14.08 14.08V176h-64v-80a48 48 0 0 0-48-48H304a96 96 0 0 0-96 96v80H144v-96a32 32 0 0 0-32-32H48a32 32 0 0 0-32 32V448a32 32 0 0 0 32 32h64a32 32 0 0 0 32-32v-96h64v128a48 48 0 0 0 48 48h192v64h-80a32 32 0 0 0-32 32v64a32 32 0 0 0 32 32h288a32 32 0 0 0 32-32v-64a32 32 0 0 0-32-32h-80z"  horiz-adv-x="1024" />

    
    <glyph glyph-name="chengguo" unicode="&#58945;" d="M914.602667 786.2272H177.493333A182.442667 182.442667 0 0 1 59.050667 743.185067c4.881067 54.818133 53.384533 98.133333 112.4352 98.133333h747.997866c15.837867 0 28.808533 12.288 28.808534 27.3408 0 15.018667-12.970667 27.3408-28.808534 27.3408H171.6224C77.6192 896 1.160533 823.3984 1.160533 734.139733v-96.938666c-0.7168-6.382933-1.160533-12.970667-1.160533-19.524267v-576.989867C0-52.394667 79.7696-128 177.664-128h736.938667C1012.6336-128 1092.266667-52.258133 1092.266667 40.686933v576.853334c0 92.945067-79.7696 168.686933-177.664 168.686933z m105.6768-745.813333c0-55.364267-47.377067-100.352-105.6768-100.352H177.493333c-58.299733 0-105.6768 44.987733-105.6768 100.352V617.540267c0 55.364267 47.377067 100.352 105.6768 100.352h736.938667c58.299733 0 105.6768-44.987733 105.6768-100.352v-577.1264zM687.240533 361.198933a188.074667 188.074667 0 0 1 32.0512 105.403734c0 104.994133-85.9136 190.464-191.488 190.464-105.506133 0-191.453867-85.469867-191.453866-190.464 0-40.004267 12.458667-77.1072 33.723733-107.7248l-95.470933-229.102934a20.616533 20.616533 0 0 1 25.429333-27.477333l78.062933 24.746667 39.936-73.5232a20.616533 20.616533 0 0 1 18.193067-10.8544h0.989867a20.753067 20.753067 0 0 1 18.090666 12.629333l73.762134 176.196267 73.762133-176.196267a20.753067 20.753067 0 0 1 18.090667-12.629333h0.989866c7.5776 0 14.6432 4.096 18.2272 10.8544l39.936 73.5232 78.0288-24.746667c7.748267-2.4576 16.042667-0.273067 21.538134 5.632a20.7872 20.7872 0 0 1 3.8912 21.845333z m-159.402666 240.913067c75.127467 0 136.192-60.757333 136.192-135.509333 0-74.752-61.064533-135.509333-136.192-135.509334-75.1616 0-136.192 60.757333-136.192 135.509334 0 74.752 61.0304 135.509333 136.192 135.509333z m-94.071467-491.008l-27.374933 50.551467a20.8896 20.8896 0 0 1-24.576 9.898666l-51.8144-16.4864 70.587733 169.437867a191.146667 191.146667 0 0 1 103.082667-46.728533z m242.688 60.3136a20.821333 20.821333 0 0 1-24.576-9.898667l-27.3408-50.551466-70.0416 167.082666a192.273067 192.273067 0 0 1 102.5024 48.128l71.2704-171.1104z"  horiz-adv-x="1092" />

    
    <glyph glyph-name="faguiku" unicode="&#59004;" d="M232.243 153.6c0 18.227-14.745 32.973-32.973 32.973h-65.74c-18.228 0-32.973-14.746-32.973-32.973 0-18.227 14.745-32.973 32.973-32.973h65.74c18.228 0 32.973 14.746 32.973 32.973zM101.99 416.973c0-18.227 14.746-32.973 32.973-32.973h64.512c18.227 0 32.973 14.746 32.973 32.973 0 18.227-14.746 32.973-32.973 32.973h-64.512c-18.227-0.205-32.973-14.95-32.973-32.973zM890.47 809.779l-65.74 2.048c0 18.227-14.746 32.973-32.973 32.973H200.704c-18.227 0-32.973-14.746-32.973-32.973v-63.693h32.973s65.536-6.144 65.536-65.945c0 0 0.614-65.946-67.174-65.946L167.73 614.4l0.615-129.638h30.72s67.788 0 67.788-69.837c0 0-6.348-63.693-67.993-63.693h-30.925l-0.614-129.638h32.768s65.74-2.048 65.74-67.79c0 0-0.204-67.788-67.993-67.788l-29.696 2.048-0.41-65.946s37.683-98.713 95.232-98.713h629.555s30.925 6.144 30.925 30.925V777.01S917.3 809.78 890.47 809.78zM330.957 614.4h427.827v-263.373H330.957V614.4zM824.73-11.06H265.216s-33.997 11.265-33.997 33.998l560.538 0.41c18.227 0 32.973 14.745 32.973 32.972V770.662h33.996v-750.796s1.024-30.925-33.996-30.925z m-691.2 658.433h65.74c18.228 0 32.973 14.745 32.973 32.973 0 18.227-14.745 32.972-32.973 32.972h-65.74c-18.228 0-32.973-14.745-32.973-32.972 0-18.228 14.745-32.973 32.973-32.973z m543.13-98.714H413.285c-9.01 0-16.384-7.373-16.384-16.384s7.373-16.384 16.384-16.384H676.66c9.011 0 16.384 7.373 16.384 16.384s-7.373 16.384-16.384 16.384z m0-98.918H413.285c-9.01 0-16.384-7.373-16.384-16.384s7.373-16.384 16.384-16.384H676.66c9.011 0 16.384 7.373 16.384 16.384s-7.373 16.384-16.384 16.384z"  horiz-adv-x="1024" />

    
    <glyph glyph-name="shujuku" unicode="&#58905;" d="M953.6 44.8h-70.4V742.4h70.4v-697.6z m-819.2 0h-64V742.4h70.4v-697.6z m0 0M512 556.8c-217.6 0-441.6 64-441.6 172.8C70.4 953.6 960 953.6 960 729.6c-6.4-115.2-230.4-172.8-448-172.8zM512 832C268.8 832 134.4 761.6 134.4 729.6s128-102.4 377.6-102.4 377.6 70.4 377.6 102.4S755.2 832 512 832z m0-742.4c-217.6 0-441.6 64-441.6 172.8h70.4c0-32 128-102.4 377.6-102.4S896 230.4 896 262.4h70.4c-12.8-108.8-236.8-172.8-454.4-172.8z m0 236.8c-217.6 0-441.6 64-441.6 172.8h70.4c0-32 128-102.4 377.6-102.4S896 467.2 896 499.2h70.4C953.6 384 729.6 326.4 512 326.4zM512-128c-217.6 0-441.6 64-441.6 172.8h70.4c0-32 128-102.4 377.6-102.4s377.6 70.4 377.6 102.4h70.4C953.6-64 729.6-128 512-128z m0 0"  horiz-adv-x="1024" />

    
    <glyph glyph-name="shezhi" unicode="&#58898;" d="M881 384c0 52.4 32.9 96.8 79 114.5-11 43.2-28 83.9-50.2 121.3C864.6 599.7 810 607.9 773 645c-37 37-45.2 91.7-25.1 136.8C710.4 804 669.7 821 626.5 832c-17.8-46.1-62.2-79-114.5-79-52.4 0-96.8 32.9-114.5 79-43.2-11-83.9-28-121.3-50.2 20.1-45.2 11.9-99.8-25.1-136.8-37-37-91.7-45.2-136.8-25.2C92 582.4 75 541.7 64 498.5c46.1-17.8 79-62.2 79-114.5 0-52.4-32.9-96.8-79-114.5 11-43.2 28-83.9 50.2-121.3C159.4 168.3 214 160.1 251 123c37-37 45.2-91.7 25.1-136.8C313.6-36 354.3-53 397.5-64c17.8 46.1 62.2 79 114.5 79 52.4 0 96.8-32.9 114.5-79 43.2 11 83.9 28 121.3 50.2-20.1 45.2-11.9 99.8 25.1 136.8 37 37 91.7 45.2 136.8 25.2C932 185.6 949 226.3 960 269.5c-46.1 17.7-79 62.1-79 114.5zM512 261c-67.9 0-123 55.1-123 123s55.1 123 123 123 123-55.1 123-123-55.1-123-123-123z"  horiz-adv-x="1024" />

    
    <glyph glyph-name="shujuguanli" unicode="&#61499;" d="M191.52 704.64h624a32 32 0 0 0 32-32v-96a32 32 0 0 0-32-32h-624a32 32 0 0 0-32 32v96a32 32 0 0 0 32 32z m430.08-48v-64h160v64h-160zM191.52 223.36h624a32 32 0 0 0 32-32v-96a32 32 0 0 0-32-32h-624a32 32 0 0 0-32 32v96a32 32 0 0 0 32 32z m430.08-48v-64h160v64h-160zM191.52 464h624a32 32 0 0 0 32-32v-96a32 32 0 0 0-32-32h-624a32 32 0 0 0-32 32v96a32 32 0 0 0 32 32z m430.08-48v-64h160v64h-160z"  horiz-adv-x="1024" />

    
    <glyph glyph-name="jianceshuju1" unicode="&#58986;" d="M256 640h-96c-35.2 0-64-28.8-64-64v-544c0-35.2 28.8-64 64-64h96c35.2 0 64 28.8 64 64V576c0 35.2-28.8 64-64 64z m-96-608V576h96v-544h-96z m400 448h-96c-35.2 0-64-28.8-64-64v-384c0-35.2 28.8-64 64-64h96c35.2 0 64 28.8 64 64V416c0 35.2-28.8 64-64 64z m-96-448V416h96v-384h-96zM864 800h-96c-35.2 0-64-28.8-64-64v-704c0-35.2 28.8-64 64-64h96c35.2 0 64 28.8 64 64V736c0 35.2-28.8 64-64 64z m-96-768V736h96v-704h-96z"  horiz-adv-x="1024" />

    
    <glyph glyph-name="jiancecanshu" unicode="&#59015;" d="M275.4 194.4c4.9-7.7 13.5-12.4 22.5-12.4 1 0 1.9 0 2.9 0.2H451c10.1-1.1 20 3.6 25.4 12.2 5.5 8.7 5.5 19.9 0 28.5-5.4 8.6-15.4 13.3-25.4 12.2H300.9c-10.1 1.1-20-3.6-25.4-12.2-5.6-8.6-5.6-19.9-0.1-28.5zM298 318.7c1 0 1.9 0.1 2.9 0.2h150.2c10-1.1 20 3.7 25.4 12.2 2.8 4.3 4.1 9.3 4.1 14.3s-1.4 9.9-4.1 14.3c-5.4 8.6-15.4 13.3-25.4 12.2H300.9c-10 1.1-20-3.6-25.4-12.2-5.5-8.7-5.5-19.9 0-28.6 4.8-7.7 13.4-12.4 22.5-12.4zM670.2 481.8c0 7.1-2.9 14-7.8 19-5 4.9-11.8 7.8-18.8 7.8H300.9c-10.1 1.1-20-3.6-25.4-12.2-5.5-8.7-5.5-19.9 0-28.6 4.9-7.7 13.5-12.4 22.5-12.4 1 0 1.9 0 2.9 0.2h342.7c14.4-0.1 26.3 11.7 26.6 26.2zM681.8 52.4V54H189.2V660.8h91.1v-4.2c0-27.1 22.2-49.3 49.3-49.3h284.7c27.2 0 49.3 22.2 49.3 49.3v4.2h91.1v-262.3c1.7-13.3 13-23.3 26.4-23.3 13.4 0 24.8 10 26.4 23.3V677.2c0 20.4-16.6 37-37 37H663.7v0.3c-0.1 27.1-22.2 49.3-49.3 49.3H329.8c-27.2 0-49.3-22.2-49.3-49.3v-0.3H172.9c-20.3 0-36.9-16.6-36.9-37v-639.5c0-20.4 16.6-37 37-37H676.6c13.3 1.7 23.3 13 23.3 26.4-0.1 11.7-7.5 21.7-18.1 25.3zM333.6 710.6h276.8V661H333.6v49.6zM881.7 56.5L801 141.8c35.6 51.5 32.8 120.2-7.4 168.8-41.3 49.8-110.8 64.9-169 36.7-58.2-28.2-89.4-92.2-75.8-155.4 13.6-63.3 68.3-108.7 133-110.5h4.1c27.6 0 54.1 8 77 23.3l79.9-84.6 0.2-0.2c5.2-5.1 11.9-7.7 18.7-7.7 6.6 0 13.1 2.4 18.3 7.3 10.4 9.9 11.2 26.2 1.7 37zM745.8 158.3c-16.9-16-39.1-24.5-62.5-24-23.2 0.3-44.9 9.7-61 26.3s-24.9 38.6-24.6 61.8 9.7 44.9 26.3 61c16.3 15.9 37.8 24.6 60.6 24.6H688.5c35.1-1 65.9-22.9 78.5-55.7 12.6-32.9 4.2-69.8-21.2-94z"  horiz-adv-x="1024" />

    
    <glyph glyph-name="tongji" unicode="&#58886;" d="M681.728 408.832H780.8l202.496 174.336a594.176 594.176 0 0 1-29.952 59.904L684.8 412.672l-4.096-3.584M535.808 895.488v-82.176L618.24 884.48A515.072 515.072 0 0 1 535.808 895.488m423.68-486.4l58.624 51.2a512 512 0 0 1-16.384 71.68L859.904 409.856H960M792.832 813.568l-256-220.672v-86.272l309.504 267.008a573.696 573.696 0 0 1-52.992 39.936m-113.92 56.32l-142.592-122.88v-86.272l208.896 179.2a494.592 494.592 0 0 1-66.304 28.928M925.44 686.848a510.208 510.208 0 0 1-41.472 49.408L536.832 437.76v-28.928h66.048l322.56 278.016M488.448 896A512 512 0 0 1 108.8 69.376L488.448 396.8V896m33.024-535.552L140.8 32.768a512 512 0 0 1 883.456 327.68H521.472"  horiz-adv-x="1024" />

    
    <glyph glyph-name="shengwu" unicode="&#58920;" d="M125.44 300.16a29.44 29.44 0 0 1-43.328 0 33.92 33.92 0 0 1 0-46.08l224.96-238.592c6.016-6.4 13.824-9.536 21.696-9.536 7.872 0 15.68 3.2 21.696 9.536a33.92 33.92 0 0 1 0 46.016L125.44 300.096z m729.088 454.976c6.016-6.4 13.888-9.6 21.76-9.6 7.808 0 15.616 3.2 21.632 9.6a33.92 33.92 0 0 1 0 45.952L817.472 886.464a29.44 29.44 0 0 1-43.392 0 33.92 33.92 0 0 1 0-46.016L854.528 755.2z m65.664-817.792h-127.36a287.424 287.424 0 0 1 94.72 215.104c0 73.024-26.304 142.208-74.112 194.752a264.64 264.64 0 0 1-84.096 62.208 108.992 108.992 0 0 1-9.6 36.736l126.72 134.272a83.392 83.392 0 0 1 0 112.896L717.312 830.08a72.32 72.32 0 0 1-106.368 0l-407.04-431.744a83.392 83.392 0 0 1 0-112.832l129.024-136.96c14.72-15.488 33.92-23.296 53.184-23.296 19.264 0 38.528 7.808 53.184 23.36L587.712 305.92c13.44-6.976 28.16-10.56 43.2-10.56 35.328 0 66.432 19.84 83.84 49.536 66.432-35.456 111.424-108.288 111.424-192.512 0-114.944-85.312-209.152-192.32-215.04H425.792c-16.96 0-30.72-14.592-30.72-32.64 0-17.92 13.76-32.448 30.72-32.448h193.28a29.312 29.312 0 0 1 4.096-0.32c4.032 0 8.064 0.128 12.096 0.32h284.928c16.96 0 30.72 14.528 30.72 32.512 0 17.92-13.76 32.512-30.72 32.512z m-289.28 423.104c-20.736 0-37.568 17.92-37.568 39.872 0 21.952 16.832 39.808 37.568 39.808 20.672 0 37.504-17.92 37.504-39.808 0-21.952-16.832-39.872-37.504-39.872z m46.272 132.48a93.76 93.76 0 0 1-46.272 12.224c-54.528 0-98.88-47.04-98.88-104.832 0-17.152 3.968-34.048 11.52-49.152l-147.52-156.544a13.376 13.376 0 0 0-19.648 0l-129.024 136.96a15.36 15.36 0 0 0 0 20.8l407.04 431.808a13.376 13.376 0 0 0 19.648 0l129.024-136.96a15.36 15.36 0 0 0 0-20.8L677.12 492.928z"  horiz-adv-x="1024" />

    
    <glyph glyph-name="chaxun" unicode="&#58908;" d="M816.459-124.79c3.04 0 6.18 0.538 9.348 1.529a250.99 250.99 0 0 0-27.58-1.529h18.232z m-46.8 319.863c-24.047 0-43.554-19.43-43.554-43.404 0-23.975 19.507-43.405 43.555-43.405 24.072 0 43.58 19.43 43.58 43.405 0 23.974-19.507 43.404-43.58 43.404z m28.567 123.551c-108.821 0-197.04-87.845-197.04-196.241s88.219-196.291 197.04-196.291c108.795 0 197.013 87.896 197.013 196.29 0.001 108.4-88.217 196.242-197.013 196.242zM893.1 7.011a21.824 21.824 0 0 0-15.412 6.352l-63.83 63.606c-12.98-7.644-28.042-12.087-44.198-12.087-48.12 0-87.13 38.838-87.13 86.787 0 47.923 39.01 86.785 87.13 86.785s87.133-38.862 87.133-86.785c0-16.083-4.467-31.097-12.134-44.026l63.851-63.581c3.921-3.945 6.38-9.357 6.38-15.362 0-11.987-9.755-21.69-21.79-21.69zM206.69 714.86c24.077 0 50.837 26.86 50.837 50.837V841.954c0 23.978-16.731 50.837-50.837 50.837-29.19 0-50.837-26.859-50.837-50.837v-76.256c0-23.978 26.76-50.837 50.837-50.837z m228.764 0c41.207 0 50.838 26.86 50.838 50.837V841.954c0 23.978-14.2 50.837-50.838 50.837-35.992 0-50.837-26.859-50.837-50.837v-76.256c0-23.978 17.698-50.837 50.837-50.837z m228.764 0c33.112 0 50.837 26.86 50.837 50.837V841.954c0 23.978-17.723 50.837-50.837 50.837-29.19 0-50.838-26.859-50.838-50.837v-76.256c0.001-23.978 26.785-50.837 50.838-50.837z m152.51-838.797c3.025 0 6.15 0.535 9.303 1.52a250.387 250.387 0 0 0-27.447-1.52h18.144z m-265.08 245.99c0 135.828 110.558 245.941 246.936 245.941 24.572 0 48.299-3.593 70.7-10.252l-1.72 382.536c0 23.982-26.758 50.838-50.836 50.838h-50.838v-50.838c0-47.956-53.543-76.254-101.672-76.254s-101.672 28.297-101.672 76.254v50.838h-25.42v-50.838c0-47.956-53.914-76.254-101.67-76.254-77.572 0-101.672 53.715-101.672 101.671v25.42h-25.42v-25.419c-0.05-48.203-38.275-101.275-103.982-101.275-48.13 0-99.364 36.191-99.364 101.275v25.42H79.598c-24.077 0-50.837-26.857-50.837-50.839v-806.331c0-23.98 26.758-57.884 50.837-57.884h718.984c-136.374 0-246.936 110.112-246.936 245.99zM181.27 511.515s530.159-2.333 531.524 0c24.599 0.894 53.095-14.645 53.095-50.837 0-34.205-26.757-50.836-50.837-50.836H181.271c-24.078 0-50.837 12.559-50.837 50.836 0.001 32.468 26.759 50.837 50.837 50.837z m228.764-508.364H181.271c-20.058 0-50.837 11.418-50.837 50.838 0 29.835 30.78 53.568 50.837 53.568l228.764-2.731c20.057 0 50.838-11.022 50.838-50.837 0-31.574-30.781-50.838-50.838-50.838z m50.838 203.347H181.271c-24.078 0-50.837 15.885-50.837 50.836 0 38.575 26.758 50.837 50.837 50.837h279.601c24.075 0 50.836-18.964 50.836-50.837 0-23.979-26.76-50.836-50.835-50.836z"  horiz-adv-x="1024" />

    


  </font>
</defs>
</svg>
